<svg xmlns="http://www.w3.org/2000/svg" fill-rule="evenodd" clip-rule="evenodd" image-rendering="optimizeQuality" shape-rendering="geometricPrecision" text-rendering="geometricPrecision" viewBox="0 0 1707 1707"><defs><linearGradient id="a" x1="853.335" x2="853.335" y1="125.189" y2="1581.46" gradientUnits="userSpaceOnUse"><stop class="stopColor6666cc svgShape" offset="0" stop-color="#009c97"/><stop class="stopColorff00ff svgShape" offset=".51" stop-color="#03fff6"/><stop class="stopColorff6600 svgShape" offset="1" stop-color="#00cfc8"/></linearGradient></defs><path fill="url(#a)" d="M962 1110l0 239 -217 0 0 -239c12,6 25,10 40,10l137 0c14,0 28,-4 40,-10zm-546 -380l0 0zm506 350l0 0zm368 -605l0 0zm-505 -350l0 0zm-134 217l-127 -54c-18,-8 -40,-1 -50,17l-68 118 0 0c-10,18 -6,40 10,52l111 83c0,2 0,3 -1,5l-179 0c-58,0 -105,47 -105,105l0 437 -202 0c-22,0 -40,17 -40,40l0 396c0,23 18,40 40,40l484 0c22,0 40,-17 40,-40l0 -396c0,-23 -18,-40 -40,-40l-202 0 0 -437c0,-14 11,-25 25,-25l179 0c1,1 1,3 1,5l-111 82c-16,12 -21,34 -10,52l67 117c9,18 32,27 51,19l127 -55c24,18 50,33 78,45l16 135c2,21 19,37 40,37l137 0c21,0 37,-15 40,-38l16 -134c28,-12 54,-27 77,-45l127 55c19,7 40,1 51,-17l68 -119 0 0c10,-17 6,-39 -11,-52l-110 -82c0,-2 0,-4 0,-5l179 0c14,0 26,11 26,25l0 437 -202 0c-22,0 -40,17 -40,40l0 396c0,23 18,40 40,40l484 0c22,0 40,-17 40,-40l0 -396c0,-23 -18,-40 -40,-40l-202 0 0 -437c0,-58 -48,-105 -106,-105l-179 0c0,-2 0,-3 0,-5l110 -83c16,-12 21,-34 11,-52l-67 -116c-10,-19 -32,-27 -52,-19l-127 54c-23,-18 -49,-33 -77,-44l-16 -136c-2,-21 -19,-37 -40,-37l-137 0c-20,0 -37,15 -40,36l-16 137c-28,11 -54,26 -78,44zm9 261c0,-107 86,-194 193,-194 172,0 259,209 137,331 -121,121 -330,35 -330,-137zm635 634l260 0c52,0 52,80 0,80l-260 0c-53,0 -53,-80 0,-80zm0 212c-53,0 -53,-80 0,-80l260 0c52,0 52,80 0,80l-260 0zm-1143 -132c-53,0 -53,-80 0,-80l260 0c52,0 52,80 0,80l-260 0zm0 132c-53,0 -53,-80 0,-80l260 0c52,0 52,80 0,80l-260 0zm1143 -20l260 0c26,0 26,-40 0,-40l-260 0c-26,0 -26,40 0,40zm0 -132l260 0c26,0 26,-40 0,-40l-260 0c-26,0 -26,40 0,40zm-1143 132l260 0c26,0 26,-40 0,-40l-260 0c-26,0 -26,40 0,40zm0 -132l260 0c26,0 26,-40 0,-40l-260 0c-26,0 -26,40 0,40zm798 92l-58 166 0 0c-12,35 -63,35 -75,0 -7,-20 -42,-112 -61,-166l194 0z"/></svg>