<svg xmlns="http://www.w3.org/2000/svg" viewBox="0 0 24 24"><defs><linearGradient id="a" x1="1" x2="23" y1="12" y2="12" gradientUnits="userSpaceOnUse"><stop class="stopColorf2551c svgShape" offset="0" stop-color="#03fff6"/><stop class="stopColorffd432 svgShape" offset="1" stop-color="#009c97"/></linearGradient></defs><path fill="url(#a)" d="M22,10V7h1V5H21.62L19.89,1.55A1,1,0,0,0,19,1H5a1,1,0,0,0-.89.55L2.38,5H1V7H2v3a1,1,0,0,0,1,1v6a1,1,0,0,0-1,1v3H1v2H23V21H22V18a1,1,0,0,0-1-1V11A1,1,0,0,0,22,10Zm-7,7a1,1,0,0,0-1,1v3H10V18a1,1,0,0,0-1-1V11a1,1,0,0,0,1-1V7h4v3a1,1,0,0,0,1,1ZM4,7H8V9H4ZM16,7h4V9H16ZM5.62,3H18.38l1,2H4.62ZM5,11H7v6H5ZM4,21V19H8v2Zm12,0V19h4v2Zm3-4H17V11h2Z" data-name="19 Bank, Building, Depository,"/></svg>