<svg xmlns="http://www.w3.org/2000/svg" enable-background="new 0 0 512 512" viewBox="0 0 512 512"><linearGradient id="a" x1="255.951" x2="255.951" y1="12.386" y2="494.145" gradientUnits="userSpaceOnUse"><stop class="stopColor09a7ae svgShape" offset="0" stop-color="#009c97"/><stop class="stopColor2665ad svgShape" offset=".5" stop-color="#03fff6"/><stop class="stopColora14392 svgShape" offset="1" stop-color="#00cfc8"/></linearGradient><path fill="url(#a)" d="M81.4,300.2c-1.8,30.9-3.5,61.8-5.3,92.6c-0.4,7.5-1,15.1-1.5,23.1c-4.6,0-8.7-0.2-12.8,0
		c-11,0.5-18.1,10.2-15,20.2c2.2,7.1,8.3,10.9,17.6,10.9c82.1,0,164.1,0,246.2,0c45.8,0,91.6,0,137.5,0c10.7,0,18-6.3,18-15.6
		c0-9.3-7.2-15.5-18-15.6c-3.4,0-6.8,0-10.5,0c-0.3-4.6-0.6-8.6-0.8-12.5c-1.5-25.8-2.9-51.5-4.4-77.3c-1.7-29.1-3.4-58.1-5.1-87.2
		c-0.3-6.2,3-10.2,8.8-11.3c6.4-1.2,9.5-4.5,9.1-9.6c-0.4-4.7-4.3-7.9-10.3-8c-22.8-0.1-45.7-0.1-68.5,0c-6.3,0-10.3,3.3-10.7,8.1
		c-0.4,5,2.9,8.4,9.2,9.5c5.3,1,8.4,4.4,8.6,9.9c0.1,2.8-0.1,5.6-0.3,8.4c-2.6,45.4-5.2,90.8-7.9,136.2c-0.6,11-1.4,22-2.1,33.7
		c-2.3,0-4,0-5.6,0c-19.7,0-39.4-0.2-59.1,0.1c-4.6,0.1-5.5-1.6-5.7-5.6c-0.6-14.7-1.4-29.4-2.3-44.1c-2.5-42.1-5-84.2-7.5-126.3
		c-0.4-7.4,2.5-11,9.7-12.4c5.5-1.1,8.5-4.6,8.1-9.5c-0.3-4.4-4-7.9-9.2-8c-23.7-0.1-47.3-0.1-71,0c-5.2,0-8.9,3.6-9.2,8
		c-0.4,4.9,2.6,8.4,8.2,9.4c7.1,1.4,9.9,4.7,9.7,11.9c-0.3,7.3-0.8,14.5-1.2,21.8c-2.9,49.9-5.8,99.7-8.6,149.6
		c-0.2,3.7-1,5.2-5.1,5.1c-20.2-0.2-40.4-0.2-60.5,0c-4,0-5-1.2-5.1-5c-0.9-19.8-2.1-39.6-3.2-59.4c-2.2-37.1-4.4-74.3-6.5-111.4
		c-0.4-7.8,2.2-11,10-12.6c5.2-1.1,8.1-4.5,7.8-9.3c-0.3-4.3-3.8-7.6-8.6-8.1c-1.6-0.2-3.3-0.1-5-0.1c-17,0-34.1,0-51.1,0
		c-5.3,0-10.6-0.1-15.9,0.2c-5.2,0.3-8.7,3.7-8.9,8.2c-0.2,4.8,2.7,8.1,7.9,9.2c7.7,1.5,10.4,5.2,9.9,13.2
		C83.7,260.6,82.5,280.4,81.4,300.2z"/><linearGradient id="b" x1="256" x2="256" y1="12.386" y2="494.145" gradientUnits="userSpaceOnUse"><stop class="stopColor09a7ae svgShape" offset="0" stop-color="#009c97"/><stop class="stopColor2665ad svgShape" offset=".5" stop-color="#03fff6"/><stop class="stopColora14392 svgShape" offset="1" stop-color="#00cfc8"/></linearGradient><path fill="url(#b)" d="M498.1,145.7c-0.7-0.4-1.5-0.8-2.2-1.1c-75.8-39.3-151.7-78.6-227.4-118c-8.5-4.4-16.5-4.5-25,0
		c-37.6,19.7-75.4,39.1-113.1,58.7c-38.9,20.2-77.7,40.3-116.6,60.5c-8.2,4.2-9.8,9.3-5.7,17.5c2.3,4.6,4.7,9.1,6.8,13.8
		c3.9,8.4,10.5,12.2,19.7,12.2c73.8,0,147.6,0,221.3,0c17,0,34.1,0,51.1,0c56.7,0,113.5,0,170.2,0c9.2,0,15.8-3.8,19.7-12.2
		c2.1-4.5,4.4-8.9,6.6-13.3C508,155.2,506.3,150.1,498.1,145.7z M282.6,148.2c-3.3,2.5-7.5,4-11.5,5.5c-3.2,1.3-5.7,2.6-6.7,6.5
		c-0.5,1.8-3.3,3.9-5.2,4c-1.5,0.1-4.3-2.2-4.7-3.9c-1.1-4.2-3.9-5.3-7.5-6c-9.6-1.9-16.9-6.5-19.3-16.8c-0.9-4.1,0.7-7.2,4.9-7.5
		c8.9-0.7,12.8-1.1,16.6,7c3,6.3,14.6,6.5,18.8,0.9c3.3-4.3,2-9.6-3.3-11.8c-3.9-1.7-8.2-2.6-12.2-4c-3.8-1.3-7.5-2.5-11.2-4
		c-8.1-3.3-13.1-9-13.1-18c-0.1-9.5,4.1-16.5,12.8-20.6c2.2-1,4.6-1.8,7-2.5c3.2-1,5.3-2.5,6.4-6.1c0.6-2,3.4-4.3,5.3-4.5
		c1.5-0.1,4.3,2.5,4.8,4.4c1.1,4.3,4.1,5.2,7.5,6.1c7.1,1.8,12.7,5.4,15.6,12.5c2.7,6.6,0.6,9.7-6.5,9.9c-0.8,0-1.7,0-3.2,0
		c-4.8,0.9-8.4-1.3-11.1-6.2c-2.9-5.2-11.2-5.9-15.5-1.7c-3.4,3.3-3.2,7.5,1,10c3.1,1.9,6.6,3,10,4.2c5.1,1.8,10.5,3.1,15.5,5.2
		C293.2,117.6,295.8,138,282.6,148.2z"/><linearGradient id="c" x1="256.071" x2="256.071" y1="12.386" y2="494.145" gradientUnits="userSpaceOnUse"><stop class="stopColor09a7ae svgShape" offset="0" stop-color="#009c97"/><stop class="stopColor2665ad svgShape" offset=".5" stop-color="#03fff6"/><stop class="stopColora14392 svgShape" offset="1" stop-color="#00cfc8"/></linearGradient><path fill="url(#c)" d="M477.9,457.6c-74,0-147.9,0-221.9,0c-51,0-101.9,0-152.9,0c-23.2,0-46.3,0-69.5,0c-10.6,0-17.4,6.7-17,16.4
		c0.4,9.1,7.3,14.8,18.1,14.8c117.8,0,235.6,0,353.4,0c29.9,0,59.9,0,89.8,0c9,0,15.3-4.3,17.1-11.4
		C497.8,466.5,490.1,457.6,477.9,457.6z"/></svg>