<svg xmlns="http://www.w3.org/2000/svg" data-name="Flat gradientFlat gradient" viewBox="0 0 64 64"><defs><linearGradient id="a" x1="8.517" x2="55.532" y1="32.006" y2="32.006" gradientUnits="userSpaceOnUse"><stop class="stopColorffde00 svgShape" offset="0" stop-color="#03fff6"/><stop class="stopColorfd5900 svgShape" offset="1" stop-color="#009c97"/></linearGradient></defs><path fill="url(#a)" d="M51.31,12.26C51.25,12.15,45,1.17,28.07,4.71,19.68,6.4,14.15,13.24,13.36,21.54c-.07,1.96.37,5.03-.87,6.71L8.88,33.99a2.36552,2.36552,0,0,0,1.22,3.48l2.53.87-.56,1.67c-.34.81995.75,1.43,1.22,1.9l-.59,1.84a1.00355,1.00355,0,0,0,.57,1.23l1.19995.5-.34,2.94a3.86332,3.86332,0,0,0,3.66,4.28l6.69.26,2.04,4.62a4.0655,4.0655,0,0,0,5.38,2.06c3.8-1.73,10.87-5.47,15.52-11.16a4.30424,4.30424,0,0,0,.53-4.41A2.83844,2.83844,0,0,1,48.54,41.33C52.43,37.06,60.48,25.68,51.31,12.26ZM19.25,24.39a14.875,14.875,0,0,1,29.75,0C48.19,44.12,20.07,44.13,19.25,24.39Zm22.72,1h4.98A12.88714,12.88714,0,0,1,35.12,37.22V32.24a.99513.99513,0,0,0-1.99,0c-.01,0-.01,4.98-.01,4.98A12.886,12.886,0,0,1,21.3,25.39h4.98a1.00023,1.00023,0,0,0,0-2H21.3A12.87639,12.87639,0,0,1,33.12,11.57v4.97a1,1,0,0,0,2,0V11.57A12.87755,12.87755,0,0,1,46.95,23.39H41.97A1.00023,1.00023,0,0,0,41.97,25.39Z"/></svg>