<svg xmlns="http://www.w3.org/2000/svg" fill-rule="evenodd" clip-rule="evenodd" image-rendering="optimizeQuality" shape-rendering="geometricPrecision" text-rendering="geometricPrecision" viewBox="0 0 1707 1707"><defs><linearGradient id="a" x1="853.331" x2="853.331" y1="-.469" y2="1707.13" gradientUnits="userSpaceOnUse"><stop class="stopColor6666cc svgShape" offset="0" stop-color="#009c97"/><stop class="stopColorff00ff svgShape" offset=".51" stop-color="#03fff6"/><stop class="stopColorff6600 svgShape" offset="1" stop-color="#00cfc8"/></linearGradient></defs><path fill="url(#a)" d="M853 118l1 0 672 0 -50 -50c-37,-37 20,-94 57,-56l113 113c6,4 9,9 12,14 6,12 6,26 0,38 -3,5 -6,10 -12,14l-113 113c-37,38 -94,-19 -57,-56l50 -50 -339 0c238,122 402,369 402,655l0 1 0 672 49 -50c38,-37 94,20 57,57l-114 113c-3,6 -8,9 -14,12 -11,6 -25,6 -37,0 -6,-3 -11,-6 -14,-12l-114 -113c-37,-37 19,-94 57,-57l50 50 0 -339c-122,238 -370,402 -656,402l0 0 -672 0 49 49c38,38 -19,94 -56,57l-114 -114c-5,-3 -9,-8 -11,-14 -7,-11 -7,-25 0,-37 2,-6 6,-11 11,-14l114 -114c37,-37 94,19 56,57l-49 50 338 0c-238,-122 -401,-370 -401,-656l0 0 0 -672 -50 49c-37,38 -94,-19 -56,-56l113 -114c4,-5 9,-9 14,-11 12,-7 26,-7 38,0 5,2 10,6 14,11l113 114c38,37 -19,94 -56,56l-50 -49 0 338c122,-238 369,-401 655,-401zm566 735l0 1c0,309 -249,561 -557,565 -6,1 -12,1 -17,0 -306,-4 -553,-251 -558,-557 0,-6 0,-12 0,-17 5,-309 257,-558 566,-558l0 0 0 0c313,0 566,253 566,565l0 1zm-94 116c-25,14 -55,26 -88,36 -57,17 -123,30 -194,38 -8,71 -21,137 -38,194 -11,34 -23,64 -36,88 84,-20 163,-63 228,-128 65,-65 108,-144 128,-228zm-363 81c-72,5 -146,5 -217,0 7,60 18,116 33,164 51,166 100,166 151,0 14,-48 25,-104 33,-164zm-299 -7c-70,-8 -136,-21 -193,-38 -35,-11 -64,-23 -89,-36 21,84 63,163 129,228 65,65 144,108 227,128 -13,-24 -25,-54 -35,-88 -18,-57 -30,-123 -39,-194zm-282 -306c25,-13 54,-25 89,-35 57,-18 123,-30 193,-39 9,-70 21,-136 39,-193 10,-34 22,-63 35,-89 -83,21 -162,64 -227,129 -66,65 -108,144 -129,227zm364 -81c71,-4 145,-4 217,0 -8,-59 -19,-115 -33,-163 -51,-167 -100,-167 -151,0 -15,48 -26,104 -33,163zm298 7c71,9 137,21 194,39 33,10 63,22 88,35 -20,-83 -63,-162 -128,-227 -65,-65 -144,-108 -228,-129 14,26 26,55 36,89 17,57 30,123 38,193zm171 266c166,-51 166,-100 0,-151 -48,-15 -104,-26 -164,-33 5,71 5,145 0,217 60,-8 116,-19 164,-33zm-244 -192c-77,-6 -157,-6 -233,0 -6,76 -6,156 0,233 76,5 156,5 233,0 5,-77 5,-157 0,-233zm-314 8c-59,7 -115,18 -163,33 -167,51 -167,100 0,151 48,14 104,25 163,33 -4,-72 -4,-146 0,-217zm661 -355c-128,-128 -296,-192 -463,-192l-1 0c-167,0 -335,64 -463,192 -128,128 -192,295 -192,463l0 0c0,168 64,336 192,464 128,128 295,191 463,192l0 0c168,0 336,-64 464,-192 128,-128 191,-296 192,-463l0 -1c0,-167 -64,-335 -192,-463zm-1119 463l0 0 0 0zm655 656l0 0 0 0zm656 -656l0 0 0 0zm-656 -655l0 0 0 0z"/></svg>