<svg xmlns="http://www.w3.org/2000/svg" data-name="Layer 1" viewBox="0 0 110 110"><defs><linearGradient id="a" x1="55.98" x2="55.98" y1="21.23" y2="87.91" gradientUnits="userSpaceOnUse"><stop class="stopColordd1200 svgShape" offset="0" stop-color="#03fff6"/><stop class="stopColorfba300 svgShape" offset="1" stop-color="#009c97"/></linearGradient></defs><path fill="url(#a)" d="M21.5,54h7.19v6.5H21.5Zm9.19-1.08H81.27V76.26A2.29,2.29,0,0,1,79,78.54H33a2.29,2.29,0,0,1-2.29-2.28ZM76.14,72.36a1,1,0,0,0-1-1H72.67a1,1,0,0,0,0,2h2.47A1,1,0,0,0,76.14,72.36Zm-9.7-13.84a1,1,0,0,0,1,1h7.7a1,1,0,0,0,0-2h-7.7A1,1,0,0,0,66.44,58.52Zm-2.51,6.92a1,1,0,0,0,1,1H75.14a1,1,0,0,0,0-2H64.93A1,1,0,0,0,63.93,65.44Zm-9-6.92a1,1,0,0,0,1,1h6.92a1,1,0,0,0,0-2H56A1,1,0,0,0,55,58.52Zm0,6.92a1,1,0,0,0,1,1h4.32a1,1,0,0,0,0-2H56A1,1,0,0,0,55,65.44Zm0,6.92a1,1,0,0,0,1,1H68.42a1,1,0,0,0,0-2H56A1,1,0,0,0,55,72.36Zm-17.35-12a5.13,5.13,0,1,0,5.13-5.13A5.13,5.13,0,0,0,37.61,60.34Zm-3,14.89a1,1,0,0,0,1,1H49.84a1,1,0,0,0,1-1V69.46a3.75,3.75,0,0,0-3.74-3.74H38.36a3.74,3.74,0,0,0-3.73,3.74Zm8.11-11.77a3.13,3.13,0,1,0-3.13-3.12A3.12,3.12,0,0,0,42.74,63.46Zm-4.09,8.1a1,1,0,0,1,2,0v2.67h4.16V71.56a1,1,0,0,1,2,0v2.67h2V69.46a1.74,1.74,0,0,0-1.74-1.74H38.36a1.73,1.73,0,0,0-1.73,1.74v4.77h2ZM21.5,69.26h7.19V62.47H21.5Zm69-45.36v6.72h-69V23.9a2.67,2.67,0,0,1,2.66-2.67H87.8A2.67,2.67,0,0,1,90.46,23.9Zm-60,2a2.21,2.21,0,1,0-2.2,2.21A2.2,2.2,0,0,0,30.47,25.92Zm7.65,0a2.21,2.21,0,1,0-2.2,2.21A2.2,2.2,0,0,0,38.12,25.92Zm7.65,0a2.21,2.21,0,1,0-2.2,2.21A2.2,2.2,0,0,0,45.77,25.92Zm40.48,0a1,1,0,0,0-1-1H57.4a1,1,0,0,0,0,2H85.25A1,1,0,0,0,86.25,25.93Zm-5,21A2.29,2.29,0,0,0,79,44.68H60.83v2.11h.35a1,1,0,0,1,0,2H50.78a1,1,0,0,1,0-2h.35V44.68H33A2.29,2.29,0,0,0,30.69,47v3.93H81.27ZM58.83,39.83A2.87,2.87,0,0,0,56,37a2.86,2.86,0,0,0-2.85,2.85v7h5.7v-7ZM21.5,52h7.19V47A4.29,4.29,0,0,1,33,42.68H51.13V39.83A4.86,4.86,0,0,1,56,35a4.87,4.87,0,0,1,4.85,4.85v2.85H79A4.29,4.29,0,0,1,83.27,47v5h7.19V32.62h-69Zm69,2H83.27v6.5h7.19ZM83.27,69.26h7.19V62.47H83.27Zm7.19,16v-14H83.27v5A4.29,4.29,0,0,1,79,80.54H33a4.29,4.29,0,0,1-4.29-4.28v-5H21.5v14a2.67,2.67,0,0,0,2.66,2.67H87.8A2.67,2.67,0,0,0,90.46,85.24Zm6.23-23.77a1.39,1.39,0,1,0,1.39-1.39A1.39,1.39,0,0,0,96.69,61.47Zm4.89-15.79a1.39,1.39,0,1,0,1.4,1.39A1.38,1.38,0,0,0,101.58,45.68Zm0,29.08a1.39,1.39,0,1,0,1.4,1.39A1.38,1.38,0,0,0,101.58,74.76ZM92.46,52h0v2H95.7a1,1,0,0,0,.7-.29L100,50.06,98.6,48.65h0l0-.07,0,.08L95.28,52Zm0,19.29h2.82l3.32,3.32h0L100,73.17,96.4,69.55a.89.89,0,0,0-.37-.23,1,1,0,0,0-.33-.06H92.46Zm-80-9.79a1.4,1.4,0,1,0,1.4-1.39A1.4,1.4,0,0,0,12.48,61.47Zm-2.1-15.79a1.39,1.39,0,1,0,1.38,1.39A1.4,1.4,0,0,0,10.38,45.68Zm0,29.08a1.39,1.39,0,1,0,1.38,1.39A1.4,1.4,0,0,0,10.38,74.76ZM16.26,54H19.5V52H16.68l-3.32-3.32,0-.08,0,.07h0l-1.42,1.41,3.62,3.62A1,1,0,0,0,16.26,54Zm3.24,6.5H17.1v2h2.4Zm0,10.79h0v-2H16.26a1,1,0,0,0-.33.06.89.89,0,0,0-.37.23l-3.62,3.62,1.42,1.41h0l3.32-3.32Zm73-8.79h2.4v-2h-2.4Z"/></svg>