<svg xmlns="http://www.w3.org/2000/svg" viewBox="0 0 32 32"><defs><linearGradient id="a" x1="7.501" x2="23.334" y1="28.524" y2="1.1" gradientUnits="userSpaceOnUse"><stop class="stopColorb429f9 svgShape" offset="0" stop-color="#03fff6"/><stop class="stopColorab32f9 svgShape" offset=".123" stop-color="#32f9f3"/><stop class="stopColor944cf8 svgShape" offset=".326" stop-color="#009c97"/><stop class="stopColor6e75f6 svgShape" offset=".586" stop-color="#6ef6f1"/><stop class="stopColor3baef4 svgShape" offset=".889" stop-color="#3bf4ee"/><stop class="stopColor26c5f3 svgShape" offset="1" stop-color="#00cfc8"/></linearGradient></defs><path fill="url(#a)" d="M13,8A11,11,0,1,0,24,19,11.013,11.013,0,0,0,13,8Zm1,3.305a13.048,13.048,0,0,1,1.192,2.048c-.394.065-.79.11-1.192.139Zm-2,2.187c-.4-.03-.8-.074-1.192-.14A13.084,13.084,0,0,1,12,11.305Zm-1.912,1.787A15.162,15.162,0,0,0,12,15.523V18H9.6A13.379,13.379,0,0,1,10.088,15.279ZM12,20v2.479a15.145,15.145,0,0,0-1.911.243A13.322,13.322,0,0,1,9.6,20Zm0,4.508V26.7a13.048,13.048,0,0,1-1.192-2.048C11.2,24.582,11.6,24.537,12,24.508Zm2,0c.4.03.8.074,1.192.14A13.084,13.084,0,0,1,14,26.7Zm1.911-1.786A15.191,15.191,0,0,0,14,22.48V20h2.4A13.322,13.322,0,0,1,15.911,22.722ZM14,18V15.523a15.076,15.076,0,0,0,1.911-.244A13.3,13.3,0,0,1,16.4,18Zm3.164-5.11a15.047,15.047,0,0,0-1.309-2.418A8.977,8.977,0,0,1,18.874,12.2,13.047,13.047,0,0,1,17.164,12.89Zm-8.329,0a13.02,13.02,0,0,1-1.71-.693,9,9,0,0,1,3.02-1.725A15.094,15.094,0,0,0,8.835,12.89Zm-.682,1.883A15.328,15.328,0,0,0,7.6,18H4.059a8.947,8.947,0,0,1,1.664-4.275A15.174,15.174,0,0,0,8.153,14.773ZM7.6,20a15.317,15.317,0,0,0,.555,3.227,15.1,15.1,0,0,0-2.43,1.048A8.947,8.947,0,0,1,4.059,20Zm1.237,5.11a15.052,15.052,0,0,0,1.31,2.418A8.991,8.991,0,0,1,7.125,25.8,13.16,13.16,0,0,1,8.835,25.11Zm8.33,0a13.02,13.02,0,0,1,1.71.693,9,9,0,0,1-3.02,1.725A15.094,15.094,0,0,0,17.165,25.11Zm.682-1.883A15.263,15.263,0,0,0,18.4,20h3.54a8.947,8.947,0,0,1-1.664,4.275A15.174,15.174,0,0,0,17.847,23.227ZM18.4,18a15.252,15.252,0,0,0-.554-3.227,15.1,15.1,0,0,0,2.43-1.048A8.947,8.947,0,0,1,21.941,18Zm5.622-9a1,1,0,1,1-1.009-1h.009A1,1,0,0,1,24.023,9Zm1.809-2.829A3.97,3.97,0,0,1,27,9H25a1.994,1.994,0,0,0-2-2V5A3.974,3.974,0,0,1,25.832,6.168ZM30,9l-2-.008A4.988,4.988,0,0,0,23.031,4h-.022L23,2h.032A6.989,6.989,0,0,1,30,9Z" data-name="14 earth globe"/></svg>