<svg xmlns="http://www.w3.org/2000/svg" viewBox="0 0 64 64"><defs><linearGradient id="a" x1="47" x2="57" y1="11.5" y2="11.5" gradientUnits="userSpaceOnUse"><stop class="stopColor0c408d svgShape" offset="0" stop-color="#0c8d89"/><stop class="stopColor015bbb svgShape" offset="1" stop-color="#01bbb5"/></linearGradient><linearGradient id="b" x1="7" x2="52" y1="32" y2="32" gradientUnits="userSpaceOnUse"><stop class="stopColor015bbb svgShape" offset="0" stop-color="#01bbb5"/><stop class="stopColor02aff8 svgShape" offset="1" stop-color="#02f8f0"/></linearGradient></defs><g class="color000000 svgShape" data-name="enscript code"><path fill="url(#a)" d="M57,12v4H47V12a5,5,0,0,1,10,0Z"/><path fill="url(#b)" d="M12,7a5,5,0,0,0-5,5V51h4V31h4V46h4V41h4V57h4V35h4V48h4V39h4v5h4V35h4V12a5,5,0,0,1,5-5ZM39,35H35V31h4Z"/><rect width="4" height="4" x="44" y="49" fill="#03fff6" class="color02dbf8 svgShape"/><path fill="#03fff6" d="M19 17a1 1 0 0 1-1-1V11a1 1 0 0 1 2 0v5A1 1 0 0 1 19 17zM23 17a1 1 0 0 1-1-1V11a1 1 0 0 1 2 0v5A1 1 0 0 1 23 17zM35 17a1 1 0 0 1-1-1V11a1 1 0 0 1 2 0v5A1 1 0 0 1 35 17zM29 17a3 3 0 0 1-3-3V13a3 3 0 0 1 6 0v1A3 3 0 0 1 29 17zm0-5a1 1 0 0 0-1 1v1a1 1 0 0 0 2 0V13A1 1 0 0 0 29 12z" class="color02dbf8 svgShape"/><path fill="#03fff6" d="M19 17a1 1 0 0 1-1-1V11a1 1 0 0 1 2 0v5A1 1 0 0 1 19 17zM23 17a1 1 0 0 1-1-1V11a1 1 0 0 1 2 0v5A1 1 0 0 1 23 17zM29 17a3 3 0 0 1-3-3V13a3 3 0 0 1 6 0v1A3 3 0 0 1 29 17zm0-5a1 1 0 0 0-1 1v1a1 1 0 0 0 2 0V13A1 1 0 0 0 29 12zM41 17a3 3 0 0 1-3-3V13a3 3 0 0 1 6 0v1A3 3 0 0 1 41 17zm0-5a1 1 0 0 0-1 1v1a1 1 0 0 0 2 0V13A1 1 0 0 0 41 12zM35 27a1 1 0 0 1-1-1V21a1 1 0 0 1 2 0v5A1 1 0 0 1 35 27zM31 27a1 1 0 0 1-1-1V21a1 1 0 0 1 2 0v5A1 1 0 0 1 31 27zM19 27a1 1 0 0 1-1-1V21a1 1 0 0 1 2 0v5A1 1 0 0 1 19 27zM15 27a1 1 0 0 1-1-1V21a1 1 0 0 1 2 0v5A1 1 0 0 1 15 27zM11 27a1 1 0 0 1-1-1V21a1 1 0 0 1 2 0v5A1 1 0 0 1 11 27zM41 27a3 3 0 0 1-3-3V23a3 3 0 0 1 6 0v1A3 3 0 0 1 41 27zm0-5a1 1 0 0 0-1 1v1a1 1 0 0 0 2 0V23A1 1 0 0 0 41 22zM25 27a3 3 0 0 1-3-3V23a3 3 0 0 1 6 0v1A3 3 0 0 1 25 27zm0-5a1 1 0 0 0-1 1v1a1 1 0 0 0 2 0V23A1 1 0 0 0 25 22zM13 17a3 3 0 0 1-3-3V13a3 3 0 0 1 6 0v1A3 3 0 0 1 13 17zm0-5a1 1 0 0 0-1 1v1a1 1 0 0 0 2 0V13A1 1 0 0 0 13 12z" class="color02dbf8 svgShape"/><rect width="4" height="4" x="31" y="52" fill="#00cfc8" class="color02aff8 svgShape"/><rect width="4" height="4" x="15" y="51" fill="#009c97" class="color015bbb svgShape"/></g></svg>