<svg xmlns="http://www.w3.org/2000/svg" xmlns:xlink="http://www.w3.org/1999/xlink" fill-rule="evenodd" clip-rule="evenodd" image-rendering="optimizeQuality" shape-rendering="geometricPrecision" text-rendering="geometricPrecision" viewBox="0 0 1706.66 1706.66"><defs><linearGradient id="f" x1="851.16" x2="1024.19" y1="200.09" y2="200.09" gradientUnits="userSpaceOnUse" xlink:href="#a"/><linearGradient id="b" x1=".46" x2="143.78" y1="883.89" y2="883.89" gradientUnits="userSpaceOnUse"><stop class="stopColorcc3300 svgShape" offset="0" stop-color="#03fff6"/><stop class="stopColorff6600 svgShape" offset="1" stop-color="#00cfc8"/></linearGradient><linearGradient id="n" x1="0%" x2="99.997%" y1="50.001%" y2="50.001%" gradientUnits="objectBoundingBox" xlink:href="#b"/><linearGradient id="k" x1="273.19" x2="416.3" y1="344.25" y2="344.25" gradientUnits="userSpaceOnUse" xlink:href="#b"/><linearGradient id="i" x1="381.28" x2="1183.99" y1="782.07" y2="782.07" gradientUnits="userSpaceOnUse" xlink:href="#b"/><linearGradient id="m" x1="11.13" x2="154.35" y1="671.85" y2="671.85" gradientUnits="userSpaceOnUse" xlink:href="#b"/><linearGradient id="l" x1="609.4" x2="752.74" y1="73.47" y2="73.47" gradientUnits="userSpaceOnUse" xlink:href="#b"/><linearGradient id="s" x1="271.26" x2="414.48" y1="1220.23" y2="1220.23" gradientUnits="userSpaceOnUse" xlink:href="#b"/><linearGradient id="t" x1="598.85" x2="742.19" y1="1482.28" y2="1482.28" gradientUnits="userSpaceOnUse" xlink:href="#b"/><linearGradient id="a" x1="511.82" x2="941.03" y1="726.93" y2="726.93" gradientUnits="userSpaceOnUse"><stop class="stopColor6600cc svgShape" offset="0" stop-color="#009c97"/><stop class="stopColor9900ff svgShape" offset="1" stop-color="#00fff7"/></linearGradient><linearGradient id="o" x1="821.56" x2="964.66" y1="84.02" y2="84.02" gradientUnits="userSpaceOnUse" xlink:href="#b"/><linearGradient id="c" x1="82.81" x2="315.82" y1="584.01" y2="584.01" gradientUnits="userSpaceOnUse" xlink:href="#a"/><linearGradient id="p" x1="72.25" x2="310.99" y1="920.88" y2="920.88" gradientUnits="userSpaceOnUse" xlink:href="#a"/><linearGradient id="e" x1="1063.74" x2="1187.98" y1="408.45" y2="408.45" gradientUnits="userSpaceOnUse" xlink:href="#a"/><linearGradient id="h" x1="344.87" x2="471.12" y1="407.91" y2="407.91" gradientUnits="userSpaceOnUse" xlink:href="#a"/><linearGradient id="d" x1="1196.81" x2="1430.13" y1="597.76" y2="597.76" gradientUnits="userSpaceOnUse" xlink:href="#a"/><linearGradient id="r" x1="343.41" x2="468.54" y1="1124.21" y2="1124.21" gradientUnits="userSpaceOnUse" xlink:href="#a"/><linearGradient id="q" x1="494.07" x2="667.89" y1="1306.42" y2="1306.42" gradientUnits="userSpaceOnUse" xlink:href="#a"/><linearGradient id="j" x1="922.24" x2="1543.32" y1="1233.71" y2="1233.71" gradientUnits="userSpaceOnUse" xlink:href="#a"/><linearGradient id="g" x1="504.62" x2="683.81" y1="191.58" y2="191.58" gradientUnits="userSpaceOnUse" xlink:href="#a"/></defs><path fill="url(#c)" d="m222.47 583.91-76.71 76.71c-34.01 34.02-85.86-17.83-51.84-51.85l102.64-102.64c14-14 37.84-14 51.84 0l128.52 128.53a418.88 418.88 0 0 0-20.63 83.06L222.47 583.91z"/><path fill="url(#d)" d="m1351.72 596.54 76.7 76.7c34.58 34.58 85.52-18.2 51.85-51.86l-102.64-102.62c-14.32-14.32-37.54-14.32-51.86 0L1196.8 647.73c8.66 27.16 14.7 55.83 17.89 85.82l137.02-137.01z"/><path fill="url(#e)" d="m1063.75 451.15 93.85-93.85c34.02-34.02 85.87 17.83 51.86 51.85l-93.52 93.52a433.28 433.28 0 0 0-52.19-51.52z"/><path fill="url(#f)" d="m981.05 223.8-76.71-76.72c-34.02-34.02 17.85-85.85 51.86-51.84l102.64 102.64c14.32 14.31 14.32 37.52 0 51.84L933.01 375.54a450.129 450.129 0 0 0-81.84-21.85L981.06 223.8z"/><path fill="url(#g)" d="M593.13 213.25 730.8 350.92c-28.43 3.44-56.74 9.78-84.5 19.19L515.35 239.17c-14.32-14.32-14.32-37.53 0-51.85L617.99 84.68c34.02-34.02 85.85 17.83 51.84 51.85l-76.7 76.71z"/><path fill="url(#h)" d="m452.69 504.05-96.72-96.73c-34.01-34.01 17.83-85.85 51.84-51.84l96.42 96.42c-18.88 16.29-35.49 33.12-51.54 52.15z"/><path fill="url(#i)" d="M782.71 1183.49c-355.39 0-536.11-432.64-283.74-685 252.13-252.13 685.01-72.88 685.01 283.74 0 221.76-179.52 401.26-401.27 401.26zm0-97.04c-167.76 0-304.23-136.45-304.23-304.21 0-167.77 136.46-304.21 304.23-304.21 167.75 0 304.21 136.46 304.21 304.21 0 167.76-136.46 304.21-304.21 304.21z"/><path fill="url(#j)" d="M1442.28 1705.73c-15.24 0-56.63-48.3-75.94-67.65a20.057 20.057 0 0 1-5.87-14.15v-132.4h-132.39c-12.61 0-40.08-27.47-40.08-40.08v-132.4l-132.4.01c-5.31 0-10.39-2.11-14.15-5.87l-119.21-119.21c127.85-43.26 228.96-144.36 272.22-272.21l505.89 505.89c4.77 4.77 6.79 11.59 5.44 18.19l-41.7 202.17a19.978 19.978 0 0 1-15.54 15.54l-206.27 42.16zm88.77-231.69a20.02 20.02 0 0 1-14.15-5.86l-342.24-342.26c-18.65-18.65 9.69-46.91 28.29-28.3l342.24 342.26c12.65 12.65 3.51 34.16-14.14 34.16z"/><path fill="url(#k)" d="M344.73 416.8c-95.38 0-95.39-145.09 0-145.09 95.41 0 95.41 145.09 0 145.09z"/><path fill="url(#l)" d="M681.07 146.02c-95.57 0-95.56-145.09 0-145.09 95.55 0 95.54 145.09 0 145.09z"/><path fill="url(#m)" d="M82.69 744.41c-95.4 0-95.41-145.11 0-145.11 95.55 0 95.55 145.11 0 145.11z"/><path fill="url(#n)" d="M1220.69 418.62c-95.37 0-95.41-145.11 0-145.11 95.38 0 95.4 145.11 0 145.11zm270.78 336.33c-95.37 0-95.41-145.11 0-145.11 95.37 0 95.42 145.11 0 145.11z"/><path fill="url(#o)" d="M893.1 156.57c-95.38 0-95.39-145.09.02-145.09 95.39 0 95.41 145.09-.02 145.09z"/><path fill="url(#p)" d="m211.92 971.8 143.09-143.07c3.39 28.94 9.68 57.45 18.59 85.1l-135.75 135.76c-14.31 14.31-37.52 14.32-51.85-.01L83.36 946.94c-34.02-34.02 17.84-85.86 51.85-51.86l76.71 76.71z"/><path fill="url(#q)" d="m582.59 1342.48 76.7 76.7c34.58 34.58-18.2 85.52-51.86 51.85l-102.62-102.64c-14.32-14.32-14.32-37.54 0-51.86l126.2-126.2c26.07 9.59 53.6 16.79 82.47 21.24l-130.89 130.9z"/><path fill="url(#r)" d="M380.08 1219.73c-32.54 0-48.95-39.58-25.92-62.61l96.04-96.03a434.654 434.654 0 0 0 51.16 52.55l-95.35 95.34a36.613 36.613 0 0 1-25.93 10.74z"/><path fill="url(#s)" d="M342.92 1292.77c-95.55 0-95.56-145.08 0-145.08 95.43 0 95.41 145.08 0 145.08z"/><path fill="url(#b)" d="M72.13 956.43c-95.55 0-95.57-145.09-.02-145.09s95.54 145.09.02 145.09z"/><path fill="url(#t)" d="M670.52 1554.82c-95.52 0-95.6-145.08 0-145.08 95.56 0 95.53 145.08 0 145.08z"/><path fill="url(#a)" d="M782.71 1053.12c-149.37 0-270.9-121.52-270.9-270.88 0-149.37 121.53-270.88 270.9-270.88 149.36 0 270.88 121.53 270.88 270.88 0 149.36-121.52 270.88-270.88 270.88zm-49-150.23c33.82 0 98 8.44 98-50.33 0-57.12-59.02-50.31-98-50.31V902.9zm36.14 71.04c-17.64 0-20.37-14.95-20.43-31.02-23.65 0-55.71 5.67-55.71-20V641.58c0-25.69 32.1-20 55.88-20 .12-3.82.26-7.56.26-11.03 0-26.33 40-26.33 40 0 0 3.58.15 7.45.28 11.4 86.69 6.82 103.26 114.77 49.73 160.29 53.5 45.48 36.96 153.34-49.57 160.28-.02 16.22-2.64 31.41-20.43 31.41zm-36.14-211.69c38.99 0 98 6.76 98-50.33 0-57.62-60.36-50.34-98-50.33v100.66z"/></svg>