<svg xmlns="http://www.w3.org/2000/svg" viewBox="0 0 110 110"><defs><linearGradient id="a" x1="55" x2="55" y1="7" y2="103" gradientUnits="userSpaceOnUse"><stop class="stopColordd1200 svgShape" offset="0" stop-color="#03fff6"/><stop class="stopColorfba300 svgShape" offset="1" stop-color="#009c97"/></linearGradient></defs><path fill="url(#a)" d="M66.57,103H43.43a4.16,4.16,0,0,1-3.89-2.65L34,86.29H76l-5.52,14.06A4.16,4.16,0,0,1,66.57,103ZM70.46,9.64A4.15,4.15,0,0,0,66.57,7H43.43a4.15,4.15,0,0,0-3.89,2.64L34,23.7H76ZM50.22,49.92a2.39,2.39,0,0,0,.9,1,2.58,2.58,0,0,0,1.32.31A2.68,2.68,0,0,0,53.5,51a2.11,2.11,0,0,0,.79-.56,3,3,0,0,0,.54-.86,6,6,0,0,0,.35-1.13,10.19,10.19,0,0,0,.18-1.33c0-.48,0-1,0-1.49,0-.7,0-1.32-.08-1.88a10.94,10.94,0,0,0-.22-1.47,4.79,4.79,0,0,0-.38-1.09,2.43,2.43,0,0,0-.55-.75,2.08,2.08,0,0,0-.74-.44,3.05,3.05,0,0,0-.94-.13,2.36,2.36,0,0,0-1.48.43,2.81,2.81,0,0,0-.9,1.19,6.19,6.19,0,0,0-.45,1.77,18.43,18.43,0,0,0-.12,2.17,18.23,18.23,0,0,0,.16,2.66A6.08,6.08,0,0,0,50.22,49.92ZM25.71,79.18V30.81a5.11,5.11,0,0,1,5.11-5.11H79.18a5.11,5.11,0,0,1,5.11,5.11V79.18a5.11,5.11,0,0,1-5.11,5.11H30.82A5.11,5.11,0,0,1,25.71,79.18ZM47.65,45.6a18.53,18.53,0,0,0,.23,3.06,6.62,6.62,0,0,0,.78,2.24,3.74,3.74,0,0,0,1.46,1.39,5.53,5.53,0,0,0,4.55-.06,4,4,0,0,0,1.54-1.48,6.68,6.68,0,0,0,.84-2.28,15.54,15.54,0,0,0,.25-2.93,17.5,17.5,0,0,0-.23-3.06,6.29,6.29,0,0,0-.78-2.24,3.62,3.62,0,0,0-1.45-1.38,4.69,4.69,0,0,0-2.23-.47,4.78,4.78,0,0,0-2.33.52,4.09,4.09,0,0,0-1.53,1.48,6.82,6.82,0,0,0-.84,2.29A15.47,15.47,0,0,0,47.65,45.6Zm-10.9-6.2a1.46,1.46,0,0,0,.1.61.33.33,0,0,0,.31.21h6.69L38.57,52.06a1.17,1.17,0,0,0-.08.25.19.19,0,0,0,.09.17.57.57,0,0,0,.29.1,4.24,4.24,0,0,0,.57,0h.48a1,1,0,0,0,.32-.07.46.46,0,0,0,.2-.13.7.7,0,0,0,.14-.21l5-11.58.12-.29a2.29,2.29,0,0,0,.07-.28,2.43,2.43,0,0,0,0-.3,3.49,3.49,0,0,0,0-.35,2.06,2.06,0,0,0,0-.39.67.67,0,0,0-.09-.24.27.27,0,0,0-.18-.13.68.68,0,0,0-.26,0H37.16a.35.35,0,0,0-.18,0,.39.39,0,0,0-.13.15,1.34,1.34,0,0,0-.08.26A3.49,3.49,0,0,0,36.75,39.4Zm-5,28.75a1,1,0,0,0,1,1H51.2a1,1,0,0,0,1-.74l1.05-3.79,4,7.43a1,1,0,0,0,.88.53h.08a1,1,0,0,0,.86-.66l4.25-12.17,3.48,9.11a1,1,0,0,0,.93.64h9.63a1,1,0,0,0,0-2H68.35l-4.21-11a1,1,0,0,0-1.88,0L57.87,69.09,53.8,61.47a1,1,0,0,0-1-.52,1,1,0,0,0-.85.73l-1.51,5.47H32.71A1,1,0,0,0,31.71,68.15Z"/></svg>