<svg xmlns="http://www.w3.org/2000/svg" viewBox="0 0 32 32"><g fill="#03fff6" class="color000000 svgShape" data-name="22 Umbrella"><path fill="#009c97" d="M16.1,23h-.2a.4.4,0,0,1-.4-.4.42.42,0,0,1,.14-.3.36.36,0,0,1,.31-.09l1.41.2a1,1,0,0,0,.28-2L17,20.34V3a1,1,0,0,0-2,0V20.4a2.14,2.14,0,0,0-.68.4A2.4,2.4,0,0,0,15.9,25h.2a.41.41,0,0,1,.4.42.4.4,0,0,1-.13.3.42.42,0,0,1-.32.09l-1.43-.17a1,1,0,0,0-.24,2l.62.08V29a1,1,0,0,0,2,0V27.64a2.37,2.37,0,0,0,1.5-2.24A2.41,2.41,0,0,0,16.1,23Z" class="color475f8a svgShape"/><path fill="#2e7270" d="M17.36 22.41a1 1 0 0 0 .28-2L17 20.34V3a1 1 0 0 0-1-1V22.22zM16.1 23H16v2h.1a.41.41 0 0 1 .4.42.4.4 0 0 1-.13.3.42.42 0 0 1-.32.09H16V30a1 1 0 0 0 1-1V27.64a2.37 2.37 0 0 0 1.5-2.24A2.41 2.41 0 0 0 16.1 23z" class="color2e4772 svgShape"/><path fill="#00cfc8" d="M17.06,4.05c-.35,0-.7,0-1.06,0s-.78-.16-1.06,0C11,7,10,15,11,17.23,11,17.32,11.61,19,12,19a1,1,0,0,0,.89-.55C13.06,18.11,13.8,17,16,17c1.7,0,2.78.71,3.09,1.41A1,1,0,0,0,20,19c.39,0,1-1.68,1.09-1.76C22,15,21,7,17.06,4.05Z" class="color6191f2 svgShape"/><path fill="#45e6e1" d="M17.06,4.05c-.35,0-.7,0-1.06,0V17c1.7,0,2.78.71,3.09,1.41A1,1,0,0,0,20,19c.39,0,1-1.68,1.09-1.76C22,15,21,7,17.06,4.05Z" class="color4560e6 svgShape"/><path fill="#73fffa" d="M4,16v2a1,1,0,0,0,.76,1,1,1,0,0,0,1.13-.51A2.7,2.7,0,0,1,8.5,17a2.72,2.72,0,0,1,2.62,1.48A1,1,0,0,0,12,19S11,8,16,4A12,12,0,0,0,4,16Z" class="color73b9ff svgShape"/><path fill="#00cfc8" d="M16,4A12,12,0,0,1,28,16v2a1,1,0,0,1-.76,1,1,1,0,0,1-1.13-.51A2.7,2.7,0,0,0,23.5,17a2.72,2.72,0,0,0-2.62,1.48A1,1,0,0,1,20,19S21,8,16,4Z" class="color6191f2 svgShape"/></g></svg>