<svg xmlns="http://www.w3.org/2000/svg" xmlns:xlink="http://www.w3.org/1999/xlink" viewBox="0 0 512 512"><defs><linearGradient id="a" x1="280" x2="280" y1="-.79" y2="519.537" gradientUnits="userSpaceOnUse"><stop class="stopColor2ab793 svgShape" offset="0" stop-color="#009c97"/><stop class="stopColor2c98b5 svgShape" offset="1" stop-color="#03fff6"/></linearGradient><linearGradient id="b" x1="256" x2="256" y1="-.79" y2="519.537" xlink:href="#a"/><linearGradient id="c" x1="104" x2="104" y1="-.79" y2="519.537" xlink:href="#a"/><linearGradient id="d" x1="272" x2="272" y1="-.79" y2="519.537" xlink:href="#a"/></defs><path fill="url(#a)" d="M448,384V40a24.02687,24.02687,0,0,0-24-24H88A24.02687,24.02687,0,0,0,64,40V472a24.02687,24.02687,0,0,0,24,24H424a24.02687,24.02687,0,0,0,24-24V448h8a40.04521,40.04521,0,0,0,40-40V384ZM80,40a8.00917,8.00917,0,0,1,8-8H424a8.00917,8.00917,0,0,1,8,8V384H128v24a24,24,0,0,1-48,0ZM432,472a8.00917,8.00917,0,0,1-8,8H88a8.00917,8.00917,0,0,1-8-8V439.97815A39.79083,39.79083,0,0,0,104,448H432Zm48-64a24.02687,24.02687,0,0,1-24,24H135.981A39.7957,39.7957,0,0,0,144,408v-8H480Z"/><path fill="url(#b)" d="M184,153.29828V208h-8v48H336V208h-8V153.29828l10.11914-30.35785L288,106.23407V96a32.05717,32.05717,0,0,0-24-30.98743V48H248V65.01257A32.05717,32.05717,0,0,0,224,96v10.23407l-50.11914,16.70636ZM200,160h16v48H200Zm64,48V160h16v48Zm-16,0H232V160h16Zm72,32H192V224H320Zm-24-32V160h16v48ZM240,96a16,16,0,0,1,32,0v4.9007l-16-5.33332-16,5.33332Zm16,16.43262,61.88086,20.627L314.23389,144H197.76611l-3.647-10.94043Z"/><rect width="16" height="16" x="96" y="272" fill="url(#c)"/><rect width="288" height="16" x="128" y="272" fill="url(#d)"/><rect width="16" height="16" x="96" y="312" fill="url(#c)"/><rect width="288" height="16" x="128" y="312" fill="url(#d)"/><rect width="16" height="16" x="96" y="352" fill="url(#c)"/><rect width="288" height="16" x="128" y="352" fill="url(#d)"/></svg>