<svg xmlns="http://www.w3.org/2000/svg" xmlns:xlink="http://www.w3.org/1999/xlink" viewBox="0 0 32 32"><defs><linearGradient id="a" x1=".13" x2="30.1" y1="11" y2="11" gradientUnits="userSpaceOnUse"><stop class="stopColor7738c8 svgShape" offset="0" stop-color="#03fff6"/><stop class="stopColor461d93 svgShape" offset="1" stop-color="#009c97"/></linearGradient><linearGradient id="b" x1=".13" x2="30.1" y1="8" y2="8" xlink:href="#a"/><linearGradient id="c" x1=".13" x2="30.13" y1="16" y2="16" xlink:href="#a"/></defs><rect width="12" height="2" x="10" y="10" fill="url(#a)"/><rect width="6" height="2" x="13" y="7" fill="url(#b)"/><path fill="url(#c)" d="M31,16V14H30V9a1,1,0,0,0-.5-.86l-12-7A1,1,0,0,0,17,1H15a1,1,0,0,0-.5.14l-12,7A1,1,0,0,0,2,9v5H1v2H4v6a1,1,0,0,0-1,1v3H2a1,1,0,0,0-1,1v3a1,1,0,0,0,1,1H30a1,1,0,0,0,1-1V27a1,1,0,0,0-1-1H29V23a1,1,0,0,0-1-1V16ZM4,9.57,15.27,3h1.46L28,9.57V14H4ZM22,23v3H19.5V23a1,1,0,0,0-1-1V16H23v6A1,1,0,0,0,22,23ZM9,22V16h4.5v6a1,1,0,0,0-1,1v3H10V23A1,1,0,0,0,9,22Zm6.5,0V16h1v6Zm-1,2h3v2h-3ZM6,16H7v6H6ZM5,24H8v2H5Zm24,5H3V28H29Zm-5-3V24h3v2Zm2-4H25V16h1Z"/></svg>