<svg xmlns="http://www.w3.org/2000/svg" viewBox="0 0 100 100"><linearGradient id="a" x1="25.505" x2="74.495" y1="7.573" y2="92.427" gradientUnits="userSpaceOnUse"><stop class="stopColor641b7f svgShape" offset="0" stop-color="#009c97"/><stop class="stopColor00d0e1 svgShape" offset="1" stop-color="#00cfc8"/></linearGradient><path fill="url(#a)" d="m31.663 20.408 2.145-.858a4.58 4.58 0 0 1 1.11-.293l2.107-.281 14.835-2.324s5.242-1.049 9.218.107a6.794 6.794 0 0 1 2.981 1.811c2.191 2.266 6.595 8.261 3.709 17.743 0 0-2.86 10.546-13.584 13.048 0 .002-2.681.717-2.145-1.964 0 0 4.647-10.546-4.469-20.734 0 0-5.183-6.792-15.907-6.255zm37.628 15.557c-3.959 13.086-15.382 14.603-15.382 14.603-2.569.937-.563 2.854-.572 2.853 7.716 7.852 18.21 4.813 18.21 4.813 9.602-2.468 12.431-9.35 13.227-12.399a6.802 6.802 0 0 0 0-3.487c-1.081-3.997-4.703-7.929-4.703-7.929l-9.704-11.461-1.335-1.653a4.728 4.728 0 0 0-.827-.797l-1.848-1.383c6.037 8.879 2.934 16.84 2.934 16.84zm2.2 24.044c-13.414 2.64-20.115-6.735-20.115-6.735-2.032-1.827-2.785.836-2.783.844-3.314 10.501 4.3 18.339 4.3 18.339 7.092 7.73 16.485 7.45 20.226 4.215 3.022-2.831 4.794-7.875 4.794-7.875l5.562-13.942.833-1.955c.151-.354.257-.726.316-1.106l.357-2.281c-5.003 9.499-13.49 10.496-13.49 10.496zM52.119 73.565c-8.858-10.413-3.95-20.839-3.95-20.839.613-2.667-2.095-2.011-2.095-2.022-10.783 2.232-13.906 12.705-13.906 12.705-3.121 9.407 1.131 15.506 3.265 17.829a6.821 6.821 0 0 0 2.935 1.884c3.947 1.255 9.212.338 9.212.338l14.889-1.952 2.113-.229c.799-.035 2.519-.815 3.284-1.063-10.742.268-15.747-6.651-15.747-6.651zm-21.345-9.468c4.292-12.98 15.749-14.206 15.749-14.206 2.592-.87.636-2.838.629-2.838-7.514-8.053-18.081-5.277-18.081-5.277-9.659 2.227-12.662 9.028-13.534 12.058a6.798 6.798 0 0 0-.077 3.494c.97 4.016 4.499 8.043 4.499 8.043l9.407 11.7c.501.605 1.46 2.055 2.1 2.506l1.811 1.43c-5.809-9.031-2.503-16.91-2.503-16.91zm-2.432-23.299c13.371-2.844 20.208 6.435 20.208 6.435 2.059 1.798 2.772-.883 2.772-.876 3.166-10.547-4.56-18.274-4.56-18.274-6.79-7.217-14.181-6.383-17.238-5.609-4.258.533-7.687 9.121-7.732 9.62l-5.366 14.027-.804 1.966a4.782 4.782 0 0 0-.3 1.108L15 51.485c4.871-9.57 13.342-10.687 13.342-10.687zM99 50c0 27.019-21.981 49-49 49S1 77.019 1 50 22.981 1 50 1s49 21.981 49 49zm-3 0C96 24.636 75.364 4 50 4S4 24.636 4 50s20.636 46 46 46 46-20.636 46-46z"/></svg>