<svg xmlns="http://www.w3.org/2000/svg" viewBox="0 0 66 66"><linearGradient id="a" x1="20.27" x2="45.73" y1="33" y2="33" gradientUnits="userSpaceOnUse"><stop class="stopColoref662b svgShape" offset="0" stop-color="#2befe9"/><stop class="stopColord53727 svgShape" offset="1" stop-color="#27d5cf"/></linearGradient><circle cx="33" cy="33" r="12.7" fill="url(#a)"/><path fill="#fff" d="M34.6 35.8c0-.4-.1-.8-.4-1-.2-.3-.6-.5-1.2-.8-.6-.2-1.1-.4-1.5-.6-.4-.2-.8-.5-1.1-.7-.3-.3-.5-.6-.7-1s-.2-.8-.2-1.3c0-.9.3-1.6.9-2.2.6-.6 1.3-.9 2.3-1v-1.7H34v1.7c.9.1 1.7.5 2.2 1.2.5.6.8 1.5.8 2.5h-2.3c0-.6-.1-1.1-.4-1.4s-.6-.5-1-.5-.8.1-1 .4-.4.6-.4 1 .1.7.3 1c.2.2.7.5 1.3.7.6.3 1.1.5 1.5.7s.7.5 1 .8c.3.3.5.6.6 1 .1.4.2.8.2 1.3 0 .9-.3 1.6-.8 2.2-.6.6-1.3.9-2.3 1v1.6h-1.3v-1.6c-1.1-.1-1.9-.5-2.5-1.1-.6-.6-.9-1.5-.9-2.6h2.3c0 .6.1 1.1.4 1.4.3.3.7.5 1.3.5.5 0 .8-.1 1.1-.4.4-.4.5-.7.5-1.1z" class="colorffffff svgShape"/><linearGradient id="b" x1="33" x2="33" y1="16.793" y2="9.805" gradientUnits="userSpaceOnUse"><stop class="stopColora5d1f3 svgShape" offset="0" stop-color="#03fff6"/><stop class="stopColor82b6e9 svgShape" offset="1" stop-color="#82e9e6"/></linearGradient><path fill="url(#b)" d="M33 17c-.7 0-1.2-.6-1.2-1.2V3.6h2.5v12.2c-.1.6-.6 1.2-1.3 1.2z"/><linearGradient id="c" x1="33" x2="33" y1="12.123" y2="-.282" gradientUnits="userSpaceOnUse"><stop class="stopColor1fa7df svgShape" offset="0" stop-color="#00cfc8"/><stop class="stopColor1f6ca7 svgShape" offset="1" stop-color="#009c97"/></linearGradient><circle cx="33" cy="6.4" r="5.4" fill="url(#c)"/><linearGradient id="d" x1="-241" x2="-241" y1="-216.423" y2="-223.412" gradientTransform="rotate(180 -104 -83.608)" gradientUnits="userSpaceOnUse"><stop class="stopColora5d1f3 svgShape" offset="0" stop-color="#03fff6"/><stop class="stopColor82b6e9 svgShape" offset="1" stop-color="#82e9e6"/></linearGradient><path fill="url(#d)" d="M33 49c.7 0 1.2.6 1.2 1.2v12.2h-2.5V50.2c.1-.6.6-1.2 1.3-1.2z"/><linearGradient id="e" x1="-241" x2="-241" y1="-221.093" y2="-233.499" gradientTransform="rotate(180 -104 -83.608)" gradientUnits="userSpaceOnUse"><stop class="stopColor1fa7df svgShape" offset="0" stop-color="#00cfc8"/><stop class="stopColor1f6ca7 svgShape" offset="1" stop-color="#009c97"/></linearGradient><circle cx="33" cy="59.6" r="5.4" fill="url(#e)"/><linearGradient id="f" x1="-6.017" x2="-6.017" y1="-218.2" y2="-225.188" gradientTransform="rotate(90 -104 -65)" gradientUnits="userSpaceOnUse"><stop class="stopColora5d1f3 svgShape" offset="0" stop-color="#03fff6"/><stop class="stopColor82b6e9 svgShape" offset="1" stop-color="#82e9e6"/></linearGradient><path fill="url(#f)" d="M49 33c0-.7.6-1.2 1.2-1.2h12.2v2.5H50.2c-.6-.1-1.2-.6-1.2-1.3z"/><linearGradient id="g" x1="-6.017" x2="-6.017" y1="-222.869" y2="-235.275" gradientTransform="rotate(90 -104 -65)" gradientUnits="userSpaceOnUse"><stop class="stopColor1a4473 svgShape" offset="0" stop-color="#1a7370"/><stop class="stopColor182c54 svgShape" offset="1" stop-color="#185452"/></linearGradient><circle cx="59.6" cy="33" r="5.4" fill="url(#g)"/><linearGradient id="h" x1="-202.017" x2="-202.017" y1="18.584" y2="11.595" gradientTransform="rotate(-90 -85.391 -83.609)" gradientUnits="userSpaceOnUse"><stop class="stopColora5d1f3 svgShape" offset="0" stop-color="#03fff6"/><stop class="stopColor82b6e9 svgShape" offset="1" stop-color="#82e9e6"/></linearGradient><path fill="url(#h)" d="M17 33c0 .7-.6 1.2-1.2 1.2H3.6v-2.5h12.2c.6.1 1.2.6 1.2 1.3z"/><linearGradient id="i" x1="-202.017" x2="-202.017" y1="13.914" y2="1.509" gradientTransform="rotate(-90 -85.391 -83.609)" gradientUnits="userSpaceOnUse"><stop class="stopColor1a4473 svgShape" offset="0" stop-color="#1a7370"/><stop class="stopColor182c54 svgShape" offset="1" stop-color="#185452"/></linearGradient><circle cx="6.4" cy="33" r="5.4" fill="url(#i)"/><linearGradient id="j" x1="62.17" x2="62.17" y1="-108.784" y2="-115.772" gradientTransform="rotate(45.001 -104.001 -65)" gradientUnits="userSpaceOnUse"><stop class="stopColora5d1f3 svgShape" offset="0" stop-color="#03fff6"/><stop class="stopColor82b6e9 svgShape" offset="1" stop-color="#82e9e6"/></linearGradient><path fill="url(#j)" d="M44.3 21.7c-.5-.5-.5-1.3 0-1.7l8.6-8.6 1.7 1.7-8.6 8.6c-.4.5-1.2.5-1.7 0z"/><linearGradient id="k" x1="62.17" x2="62.17" y1="-113.454" y2="-125.859" gradientTransform="rotate(45.001 -104.001 -65)" gradientUnits="userSpaceOnUse"><stop class="stopColordef1f7 svgShape" offset="0" stop-color="#def7f6"/><stop class="stopColorb6def7 svgShape" offset="1" stop-color="#b6f7f5"/></linearGradient><circle cx="51.8" cy="14.2" r="5.4" fill="url(#k)"/><linearGradient id="l" x1="-270.17" x2="-270.17" y1="-90.846" y2="-97.835" gradientTransform="rotate(-134.999 -96.292 -83.609)" gradientUnits="userSpaceOnUse"><stop class="stopColora5d1f3 svgShape" offset="0" stop-color="#03fff6"/><stop class="stopColor82b6e9 svgShape" offset="1" stop-color="#82e9e6"/></linearGradient><path fill="url(#l)" d="M21.7 44.3c.5.5.5 1.3 0 1.7l-8.6 8.6-1.7-1.7 8.6-8.6c.4-.5 1.2-.5 1.7 0z"/><linearGradient id="m" x1="-270.17" x2="-270.17" y1="-95.516" y2="-107.921" gradientTransform="rotate(-134.999 -96.292 -83.609)" gradientUnits="userSpaceOnUse"><stop class="stopColordef1f7 svgShape" offset="0" stop-color="#def7f6"/><stop class="stopColorb6def7 svgShape" offset="1" stop-color="#b6f7f5"/></linearGradient><circle cx="14.2" cy="51.8" r="5.4" fill="url(#m)"/><linearGradient id="n" x1="-131.577" x2="-131.577" y1="-247.377" y2="-254.365" gradientTransform="rotate(134.999 -104 -65)" gradientUnits="userSpaceOnUse"><stop class="stopColora5d1f3 svgShape" offset="0" stop-color="#03fff6"/><stop class="stopColor82b6e9 svgShape" offset="1" stop-color="#82e9e6"/></linearGradient><path fill="url(#n)" d="M44.3 44.3c.5-.5 1.3-.5 1.7 0l8.6 8.6-1.7 1.7-8.6-8.6c-.5-.4-.5-1.2 0-1.7z"/><linearGradient id="o" x1="-131.577" x2="-131.577" y1="-252.047" y2="-264.452" gradientTransform="rotate(134.999 -104 -65)" gradientUnits="userSpaceOnUse"><stop class="stopColordef1f7 svgShape" offset="0" stop-color="#def7f6"/><stop class="stopColorb6def7 svgShape" offset="1" stop-color="#b6f7f5"/></linearGradient><circle cx="51.8" cy="51.8" r="5.4" fill="url(#o)"/><linearGradient id="p" x1="-76.423" x2="-76.423" y1="47.747" y2="40.758" gradientTransform="rotate(-45.001 -59.075 -83.609)" gradientUnits="userSpaceOnUse"><stop class="stopColora5d1f3 svgShape" offset="0" stop-color="#03fff6"/><stop class="stopColor82b6e9 svgShape" offset="1" stop-color="#82e9e6"/></linearGradient><path fill="url(#p)" d="M21.7 21.7c-.5.5-1.3.5-1.7 0l-8.6-8.6 1.7-1.7 8.6 8.6c.5.4.5 1.2 0 1.7z"/><linearGradient id="q" x1="-76.423" x2="-76.423" y1="43.077" y2="30.672" gradientTransform="rotate(-45.001 -59.075 -83.609)" gradientUnits="userSpaceOnUse"><stop class="stopColordef1f7 svgShape" offset="0" stop-color="#def7f6"/><stop class="stopColorb6def7 svgShape" offset="1" stop-color="#b6f7f5"/></linearGradient><circle cx="14.2" cy="14.2" r="5.4" fill="url(#q)"/></svg>