<svg xmlns="http://www.w3.org/2000/svg" viewBox="0 0 24 24"><defs><linearGradient id="a" x1="3" x2="21" y1="12" y2="12" gradientUnits="userSpaceOnUse"><stop class="stopColorf2551c svgShape" offset="0" stop-color="#03fff6"/><stop class="stopColorffd432 svgShape" offset="1" stop-color="#009c97"/></linearGradient></defs><path fill="url(#a)" d="M18,3H16.82A3,3,0,0,0,14,1H10A3,3,0,0,0,7.18,3H6A3,3,0,0,0,3,6V20a3,3,0,0,0,3,3H18a3,3,0,0,0,3-3V6A3,3,0,0,0,18,3ZM10,3h4a1,1,0,0,1,0,2H10a1,1,0,0,1,0-2Zm9,17a1,1,0,0,1-1,1H6a1,1,0,0,1-1-1V6A1,1,0,0,1,6,5H7.18A3,3,0,0,0,10,7h4a3,3,0,0,0,2.82-2H18a1,1,0,0,1,1,1ZM11.47,9.44,10.41,10.5l1.06,1.06L10.06,13,9,11.91,7.94,13,6.53,11.56,7.59,10.5,6.53,9.44,7.94,8,9,9.09,10.06,8Zm0,7L10.41,17.5l1.06,1.06L10.06,20,9,18.91,7.94,20,6.53,18.56,7.59,17.5,6.53,16.44,7.94,15,9,16.09,10.06,15ZM13,9h5v2H13Zm0,4h5v2H13Zm0,4h5v2H13Z" data-name="27 Record, Judicial System, Law, Law Court"/></svg>