<svg xmlns="http://www.w3.org/2000/svg" viewBox="0 0 21 21"><linearGradient id="a" x1=".039" x2="14.262" y1="20.961" y2="6.737" gradientUnits="userSpaceOnUse"><stop class="stopColorbb33dd svgShape" offset="0" stop-color="#009c97"/><stop class="stopColorff5160 svgShape" offset="1" stop-color="#03fff6"/></linearGradient><path fill="url(#a)" d="M13.66 20.5H7.34c-.35 0-.63-.28-.63-.63v-5.59H1.13c-.35 0-.63-.28-.63-.63V7.34c0-.34.28-.62.63-.62h5.59V1.13c0-.35.28-.63.62-.63h6.31c.35 0 .63.28.63.63v5.59h5.59c.35 0 .63.28.63.63v6.31c0 .35-.28.63-.63.63h-5.59v5.59c0 .34-.28.62-.62.62z"/></svg>