<svg xmlns="http://www.w3.org/2000/svg" data-name="flat gradient" viewBox="0 0 32 32"><defs><linearGradient id="a" x1="3.56" x2="28.44" y1="16" y2="16" gradientUnits="userSpaceOnUse"><stop class="stopColor9cffac svgShape" offset="0" stop-color="#00cfc8"/><stop class="stopColor00b59c svgShape" offset="1" stop-color="#009c97"/></linearGradient></defs><path fill="url(#a)" d="M5.56 19.01a39.469 39.469 0 0 1 4.05.49 42.003 42.003 0 0 0-.95 6.94c-.04.63-.06 1.3-.08 2H3.56v-9.52c.7.02 1.37.05 2 .09ZM23.42 3.56c-.02.7-.04 1.37-.08 2a42.005 42.005 0 0 1-.95 6.94 39.485 39.485 0 0 0 4.05.49c.63.04 1.3.07 2 .09V3.56ZM11.56 19.92a39.267 39.267 0 0 0-.9 6.52c-.03.63-.06 1.29-.08 2h6.88c.02-.7.04-1.37.08-2 .1-1.74.28-3.24.49-4.58-.81-.24-1.58-.49-2.34-.73-1.34-.43-2.65-.85-4.13-1.21Zm8.41 2.46a40.654 40.654 0 0 0-.43 4.06c-.03.63-.06 1.29-.08 2h8.98v-4.99c-.7-.03-1.37-.06-2-.1a37.605 37.605 0 0 1-6.47-.97Zm1.94-7.95c-.17.63-.34 1.24-.51 1.84-.38 1.35-.75 2.66-1.07 4.14a34.93 34.93 0 0 0 6.11.94c.63.04 1.3.07 2 .09v-6.35c-.7-.03-1.37-.06-2-.1a38.874 38.874 0 0 1-4.53-.56Zm-1.95-.42c-1.56-.37-2.92-.81-4.27-1.24-.69-.22-1.38-.44-2.09-.65-.33 1.51-.71 2.84-1.08 4.15-.16.57-.32 1.14-.48 1.72 1.56.37 2.92.81 4.27 1.24.69.22 1.38.44 2.09.65.33-1.51.71-2.84 1.08-4.15.16-.57.32-1.14.48-1.72Zm-8.29-2.42a34.93 34.93 0 0 0-6.11-.94c-.63-.04-1.3-.07-2-.09v6.35c.7.03 1.37.06 2 .1a38.874 38.874 0 0 1 4.53.56c.17-.63.34-1.24.51-1.84.38-1.35.75-2.66 1.07-4.14Zm.36-1.97a40.656 40.656 0 0 0 .43-4.06c.03-.63.06-1.29.08-2H3.56v4.99c.7.03 1.37.06 2 .1a37.605 37.605 0 0 1 6.47.97Zm8.41 2.46a39.267 39.267 0 0 0 .9-6.52c.03-.63.06-1.29.08-2h-6.88c-.02.7-.04 1.37-.08 2-.1 1.74-.28 3.24-.49 4.58.81.24 1.58.49 2.34.73 1.34.43 2.65.85 4.13 1.21Z"/></svg>