<svg xmlns="http://www.w3.org/2000/svg" data-name="flat gradient" viewBox="0 0 64 64"><defs><linearGradient id="a" x1="11.814" x2="52.186" y1="32" y2="32" gradientUnits="userSpaceOnUse"><stop class="stopColorff81ff svgShape" offset="0" stop-color="#00cfc8"/><stop class="stopColora93aff svgShape" offset="1" stop-color="#009c97"/></linearGradient></defs><path fill="url(#a)" d="M11.81356,18.5589c0-2.27063,4.09106-4.79127,9.97264-4.79127s9.97271,2.52064,9.97271,4.79127-4.09113,4.80127-9.97271,4.80127S11.81356,20.82952,11.81356,18.5589Zm3.39092,12.52337a18.28443,18.28443,0,0,0,13.1635-.01006c2.12057-.93019,3.39093-2.26056,3.39093-3.55089v-5.1514c-4.29539,3.94168-15.65247,3.93933-19.94535-.00022v5.15162C11.81356,28.81165,13.08392,30.142,15.20448,31.08227ZM51.95432,13.25749l-7.512-8.91243a1.021,1.021,0,0,0-1.53044,0l-7.502,8.91243a1.00593,1.00593,0,0,0,.76025,1.64037l2.76071,0V31.7224a.99677.99677,0,0,0,1.00027,1.00027h7.502a1.00318,1.00318,0,0,0,1.00027-1.00027V14.89788H51.1841A1.00807,1.00807,0,0,0,51.95432,13.25749ZM37.60044,60a11.60312,11.60312,0,0,1,0-23.20623C52.99152,37.4247,52.99159,59.36265,37.60044,60Zm7.91217-11.60309c-.43193-10.50686-15.39074-10.51-15.82426-.00006a7.91213,7.91213,0,1,0,15.82426.00006ZM15.20448,40.03462a18.79952,18.79952,0,0,0,11.183.66022c1.29993-2.06663,3.45358-3.47419,5.3716-4.70106l-.00016-4.66144c-5.19613,4.0396-14.74361,4.02816-19.94536.01021v5.12111C11.81356,37.77407,13.08392,39.10438,15.20448,40.03462Zm6.58172,3.24086c-3.76431-.05226-7.26178-.78977-9.97267-2.98072l0,5.13133c0,2.31061,4.01108,4.79126,9.97264,4.79126a21.9313,21.9313,0,0,0,2.32063-.13A13.46415,13.46415,0,0,1,25.1071,43.0154,21.25574,21.25574,0,0,1,21.7862,43.27548Zm21.72586,5.12128c-.27474,7.82247-11.54725,7.82454-11.82318.00009a5.9116,5.9116,0,1,1,11.82318-.00009Zm-5.97163-1.00018a.71625.71625,0,0,1-.55012-.19.765.765,0,0,1,.45011-1.33033.77387.77387,0,0,1,.80021.63017,1.01215,1.01215,0,0,0,1.16036.82025c1.86481-.57125.18171-3.08519-1.08032-3.32086a1.00067,1.00067,0,0,0-1.97048.12,2.7858,2.7858,0,0,0-.69027,4.58116,2.72837,2.72837,0,0,0,2.00053.69019.71818.71818,0,0,1,.55017.19.7639.7639,0,0,1-.46012,1.33039.78012.78012,0,0,1-.80019-.66011.99959.99959,0,0,0-1.98058.27A2.7773,2.7773,0,0,0,36.88028,52.788a.9929.9929,0,0,0,1.96054-.11,2.66833,2.66833,0,0,0,.94026-.69019A2.78185,2.78185,0,0,0,37.54043,47.39658Z"/></svg>