<svg xmlns="http://www.w3.org/2000/svg" enable-background="new 0 0 512 512" viewBox="0 0 512 512"><linearGradient id="a" x1="428.055" x2="80.248" y1="59.35" y2="423.334" gradientUnits="userSpaceOnUse"><stop class="stopColor0043e3 svgShape" offset="0" stop-color="#009c97"/><stop class="stopColoref2ea3 svgShape" offset=".505" stop-color="#03fff6"/><stop class="stopColorfeb429 svgShape" offset=".989" stop-color="#00cfc8"/></linearGradient><path fill="url(#a)" d="M250.5,134.9c-60.9,0-110.3,49.4-110.3,110.3s49.4,110.3,110.3,110.3s110.3-49.4,110.3-110.3S311.4,134.9,250.5,134.9z M260.5,294.9v21.2h-17.1v-21.5c-13-1.9-25.3-7.4-34.5-15.1l9-18.4c10.3,9.1,24.8,15,35.3,15c9.3,0,14.8-3.4,14.8-9.5c0-18.8-53.1-7.8-53.1-43.1c0-15.2,11.1-25.8,28.5-28.6v-20.6h17.1v20.1c11.5,1.1,22.6,5.1,30.9,10.5l-8.7,18.7c-10.5-6.3-23.1-10.3-31-10.3c-7.5,0-12.7,2.7-12.7,8.1c0,18.4,53.1,8.1,53,44C292,282.5,278.8,292.8,260.5,294.9z"/><linearGradient id="b" x1="454.977" x2="107.17" y1="85.075" y2="449.059" gradientUnits="userSpaceOnUse"><stop class="stopColor0043e3 svgShape" offset="0" stop-color="#009c97"/><stop class="stopColoref2ea3 svgShape" offset=".505" stop-color="#03fff6"/><stop class="stopColorfeb429 svgShape" offset=".989" stop-color="#00cfc8"/></linearGradient><path fill="url(#b)" fill-rule="evenodd" d="M124.1,461.7l53.7-54c2.2-2.2,0.6-6-2.5-6l-14.6-1.3c-2.9,0-4.6-3.4-2.8-5.7l19-37.5c1.8-2.3,0.2-5.7-2.8-5.7c-1-2.1-48.5,42.9-52.5,51.3c-1.2,2.3,0.5,5.1,3.1,5.1H137c2.6,0,4.3,2.7,3.1,5l-21.7,44.8C116.7,461.3,121.3,464.5,124.1,461.7L124.1,461.7z" clip-rule="evenodd"/><linearGradient id="c" x1="512.775" x2="164.968" y1="140.304" y2="504.288" gradientUnits="userSpaceOnUse"><stop class="stopColor0043e3 svgShape" offset="0" stop-color="#009c97"/><stop class="stopColoref2ea3 svgShape" offset=".505" stop-color="#03fff6"/><stop class="stopColorfeb429 svgShape" offset=".989" stop-color="#00cfc8"/></linearGradient><path fill="url(#c)" fill-rule="evenodd" d="M193.4,504.9l53.7-54c2.2-2.2,0.6-6-2.5-6l-14.6-1.3c-2.9,0-4.6-3.4-2.8-5.7l19-37.5c1.8-2.3,0.2-5.7-2.8-5.7c-1-2.1-48.5,42.9-52.5,51.3c-1.2,2.3,0.5,5.1,3.1,5.1h12.2c2.6,0,4.3,2.7,3.1,5L187.8,501C186,504.5,190.6,507.7,193.4,504.9L193.4,504.9z" clip-rule="evenodd"/><linearGradient id="d" x1="534.436" x2="186.629" y1="161.003" y2="524.987" gradientUnits="userSpaceOnUse"><stop class="stopColor0043e3 svgShape" offset="0" stop-color="#009c97"/><stop class="stopColoref2ea3 svgShape" offset=".505" stop-color="#03fff6"/><stop class="stopColorfeb429 svgShape" offset=".989" stop-color="#00cfc8"/></linearGradient><path fill="url(#d)" fill-rule="evenodd" d="M276.1,461.7l53.7-54c2.2-2.2,0.6-6-2.5-6l-14.6-1.3c-2.9,0-4.6-3.4-2.8-5.7l19-37.5c1.8-2.3,0.2-5.7-2.8-5.7c-1-2.1-48.5,42.9-52.5,51.3c-1.2,2.3,0.5,5.1,3.1,5.1h12.2c2.6,0,4.3,2.7,3.1,5l-21.7,44.8C268.8,461.3,273.3,464.5,276.1,461.7L276.1,461.7z" clip-rule="evenodd"/><linearGradient id="e" x1="394.4" x2="46.593" y1="27.19" y2="391.174" gradientUnits="userSpaceOnUse"><stop class="stopColor0043e3 svgShape" offset="0" stop-color="#009c97"/><stop class="stopColoref2ea3 svgShape" offset=".505" stop-color="#03fff6"/><stop class="stopColorfeb429 svgShape" offset=".989" stop-color="#00cfc8"/></linearGradient><path fill="url(#e)" d="M469.9,154L469.9,154l-0.5-2.6c-0.2-0.9-0.4-1.8-0.7-2.7l-1.5-5.9l-0.2,0l0-0.1c-0.2-0.6-0.4-1.1-0.7-2.1c-4.6-12.8-11.8-24.4-21.5-34.6l0.2-0.4l-3.9-3.3l-3.8-3.7l-0.3,0.3l-5.5-4.6c-16.1-11.9-35.3-19.2-55.7-21C358.1,33,315.4,6,268.2,6c-47.7,0-90.3,27.2-107.8,68.1c-5-0.7-10-1-15-1c-31.8,0-61.5,13.3-81.8,36.5l-4.3,5.3c-0.4,0.6-0.9,1.2-1.4,1.9l-2.3,3.3l0,0.1c-10,15.4-15.3,33-15.3,51.2c0,45.3,32.8,84.5,79.7,95.4l1.8,0.4c-1.2-7.2-1.9-14.5-1.9-22c0-7.7,0.7-15.3,2-22.6c-0.7-0.3-1.4-0.6-2.1-0.9c-2.5-1.1-4.9-2.3-7.1-3.6C95.3,207.8,85,190.4,85,171.4c0-1,0-2,0.1-2.8l0.2-2.2c0.4-4.5,1.4-8.9,3.1-13.4l0.2-0.6c8.7-21.8,31.5-36.5,56.8-36.5c4.7,0,9.4,0.5,13.9,1.5l21,4.5l9.3,4.9l3.7-11.6l0.4-1.6c1.6-10.5,5.4-20.5,11.4-29.9c12.4-21.5,36.6-34.8,63.1-34.8c13.9,0,27.4,3.7,39.1,10.7c17.8,10.4,30.7,27.7,35.5,47.5l1.2,8.1l23.7,0.7c27.9,0.8,51.8,19,57.9,43.9l0.4,1.8c0.3,1.6,0.6,3.3,0.8,4.9l0.1,1.1c0.1,1.5,0.2,3.1,0.2,4.6c0,26.1-19.7,48.7-47.2,54.7c0.8,5.9,1.3,11.9,1.3,18c0,8.8-0.9,17.4-2.6,25.7l1-0.1c52.5-6.5,92.1-48.8,92.1-98.4C471.7,166.2,471.1,160.1,469.9,154z"/></svg>