<svg xmlns="http://www.w3.org/2000/svg" xmlns:xlink="http://www.w3.org/1999/xlink" viewBox="0 0 64 64"><defs><linearGradient id="q" x1="51.543" x2="58.247" y1="38.043" y2="44.747" xlink:href="#a"/><linearGradient id="a" x1="28.793" x2="35.207" y1="9.793" y2="16.207" gradientUnits="userSpaceOnUse"><stop class="stopColoreef4ff svgShape" offset="0" stop-color="#eefffe"/><stop class="stopColord4e5ff svgShape" offset="1" stop-color="#03fff6"/></linearGradient><linearGradient id="e" x1="47.793" x2="54.207" y1="28.793" y2="35.207" xlink:href="#a"/><linearGradient id="f" x1="9.838" x2="16.162" y1="28.838" y2="35.162" xlink:href="#a"/><linearGradient id="g" x1="44.741" x2="46.155" y1="17.826" y2="19.24" xlink:href="#a"/><linearGradient id="h" x1="17.871" x2="19.286" y1="44.696" y2="46.11" xlink:href="#a"/><linearGradient id="i" x1="41.206" x2="49.691" y1="41.16" y2="49.646" xlink:href="#a"/><linearGradient id="j" x1="14.4" x2="22.756" y1="14.354" y2="22.711" xlink:href="#a"/><linearGradient id="k" x1="47.438" x2="62.352" y1="15.148" y2="30.062" xlink:href="#a"/><linearGradient id="l" x1="19.253" x2="25.957" y1="5.753" y2="12.457" xlink:href="#a"/><linearGradient id="m" x1="1.648" x2="16.562" y1="33.938" y2="48.852" xlink:href="#a"/><linearGradient id="n" x1="38.043" x2="44.747" y1="51.543" y2="58.247" xlink:href="#a"/><linearGradient id="o" x1="5.753" x2="12.457" y1="19.253" y2="25.957" xlink:href="#a"/><linearGradient id="p" x1="33.938" x2="48.852" y1="1.648" y2="16.562" xlink:href="#a"/><linearGradient id="d" x1="28.793" x2="35.207" y1="47.793" y2="54.207" xlink:href="#a"/><linearGradient id="r" x1="15.148" x2="30.062" y1="47.438" y2="62.352" xlink:href="#a"/><linearGradient id="b" x1="29.879" x2="34.121" y1="3.879" y2="8.121" gradientUnits="userSpaceOnUse"><stop class="stopColor87b1f5 svgShape" offset="0" stop-color="#87f5f1"/><stop class="stopColor5889e7 svgShape" offset="1" stop-color="#00cfc8"/></linearGradient><linearGradient id="s" x1="29.879" x2="34.121" y1="55.879" y2="60.121" xlink:href="#b"/><linearGradient id="t" x1="55.879" x2="60.121" y1="29.879" y2="34.121" xlink:href="#b"/><linearGradient id="u" x1="3.879" x2="8.121" y1="29.879" y2="34.121" xlink:href="#b"/><linearGradient id="v" x1="48.263" x2="52.506" y1="11.494" y2="15.737" xlink:href="#b"/><linearGradient id="w" x1="11.494" x2="15.737" y1="48.263" y2="52.506" xlink:href="#b"/><linearGradient id="x" x1="11.494" x2="15.737" y1="11.494" y2="15.737" xlink:href="#b"/><linearGradient id="y" x1="48.263" x2="52.506" y1="48.263" y2="52.506" xlink:href="#b"/><linearGradient id="z" x1="28.448" x2="41.015" y1="28.448" y2="41.015" xlink:href="#b"/><linearGradient id="c" x1="23.816" x2="36.423" y1="18.971" y2="31.577" gradientUnits="userSpaceOnUse"><stop class="stopColora6d189 svgShape" offset="0" stop-color="#89d1cf"/><stop class="stopColor72994d svgShape" offset="1" stop-color="#009c97"/></linearGradient><linearGradient id="A" x1="33.51" x2="38.01" y1="42.49" y2="46.99" xlink:href="#c"/><linearGradient id="B" x1="41.275" x2="48.255" y1="24.725" y2="31.705" xlink:href="#c"/></defs><g class="color000000 svgShape" data-name="Network"><path fill="url(#a)" d="M32 19a1 1 0 0 1-1-1V8a1 1 0 0 1 2 0v10a1 1 0 0 1-1 1Z"/><path fill="url(#d)" d="M32 57a1 1 0 0 1-1-1V46a1 1 0 0 1 2 0v10a1 1 0 0 1-1 1Z"/><path fill="url(#e)" d="M56 33H46a1 1 0 0 1 0-2h10a1 1 0 0 1 0 2Z"/><path fill="url(#f)" d="M17.909 33H8.091a1 1 0 1 1 0-2h9.818a1 1 0 0 1 0 2Z"/><path fill="url(#g)" d="M41.913 23.068a1 1 0 0 1-.707-1.707l7.071-7.071a1 1 0 0 1 1.414 1.41l-7.071 7.075a1 1 0 0 1-.707.293Z"/><path fill="url(#h)" d="M15.043 49.938a1 1 0 0 1-.707-1.707l7.071-7.071a1 1 0 0 1 1.414 1.414l-7.071 7.072a1 1 0 0 1-.707.292Z"/><path fill="url(#i)" d="M48.984 49.938a1 1 0 0 1-.707-.292l-7.071-7.072a1 1 0 1 1 1.414-1.414l7.071 7.071a1 1 0 0 1-.707 1.707Z"/><path fill="url(#j)" d="M22.049 23a1 1 0 0 1-.707-.293L14.4 15.769a1 1 0 1 1 1.414-1.415l6.942 6.946a1 1 0 0 1-.707 1.7Z"/><path fill="url(#k)" d="M59 33a1 1 0 0 1-.917-.6l-8.209-18.79a1 1 0 1 1 1.833-.8l8.21 18.79A1 1 0 0 1 59 33Z"/><path fill="url(#l)" d="M13.21 14.21a1 1 0 0 1-.4-1.917l18.79-8.21a1 1 0 1 1 .8 1.834l-18.79 8.209a.994.994 0 0 1-.4.084Z"/><path fill="url(#m)" d="M13.21 51.791a1 1 0 0 1-.917-.6L4.083 32.4a1 1 0 1 1 1.834-.8l8.209 18.79a1 1 0 0 1-.516 1.317 1.011 1.011 0 0 1-.4.084Z"/><path fill="url(#n)" d="M32 60a1 1 0 0 1-.4-1.917l18.79-8.209a1 1 0 1 1 .8 1.833l-18.79 8.21A1.01 1.01 0 0 1 32 60Z"/><path fill="url(#o)" d="M5 33a1 1 0 0 1-.917-1.4l8.21-18.79a1 1 0 1 1 1.833.8L5.917 32.4A1 1 0 0 1 5 33Z"/><path fill="url(#p)" d="M50.79 14.21a.994.994 0 0 1-.4-.084L31.6 5.917a1 1 0 1 1 .8-1.834l18.79 8.21a1 1 0 0 1-.4 1.917Z"/><path fill="url(#q)" d="M50.79 51.791a1.011 1.011 0 0 1-.4-.084 1 1 0 0 1-.516-1.317l8.209-18.79a1 1 0 0 1 1.834.8l-8.21 18.79a1 1 0 0 1-.917.601Z"/><path fill="url(#r)" d="M32 60a1.01 1.01 0 0 1-.4-.083l-18.79-8.21a1 1 0 1 1 .8-1.833l18.79 8.209A1 1 0 0 1 32 60Z"/></g><circle cx="32" cy="6" r="3" fill="url(#b)"/><circle cx="32" cy="58" r="3" fill="url(#s)"/><circle cx="58" cy="32" r="3" fill="url(#t)"/><circle cx="6" cy="32" r="3" fill="url(#u)"/><circle cx="50.385" cy="13.615" r="3" fill="url(#v)"/><circle cx="13.615" cy="50.385" r="3" fill="url(#w)"/><circle cx="13.615" cy="13.615" r="3" fill="url(#x)"/><circle cx="50.385" cy="50.385" r="3" fill="url(#y)"/><circle cx="32" cy="32" r="15" fill="url(#z)"/><path fill="url(#c)" d="M31 21v3l2 1v2l-2 2v4l2 2-2 2-2.61-2.17L27 31l-2-2h-4l-2-4v-.48a15 15 0 0 1 15.99-7.22l-.01 1.7Z"/><path fill="url(#A)" d="M41 44a15.045 15.045 0 0 1-9.99 2.97L32.95 45 35 41h4Z"/><path fill="url(#B)" d="M46.96 33H45l-2-3-2-1v-4l2.55-2.55A14.934 14.934 0 0 1 46.96 33Z"/></svg>