<svg xmlns="http://www.w3.org/2000/svg" fill-rule="evenodd" clip-rule="evenodd" image-rendering="optimizeQuality" shape-rendering="geometricPrecision" text-rendering="geometricPrecision" viewBox="0 0 1707 1707"><defs><linearGradient id="a" x1=".008" x2="1706.65" y1="853.335" y2="853.335" gradientUnits="userSpaceOnUse"><stop class="stopColorffb800 svgShape" offset="0" stop-color="#03fff6"/><stop class="stopColorff5329 svgShape" offset="1" stop-color="#009c97"/></linearGradient></defs><path fill="url(#a)" d="M833 1188c-9,-1 -19,-2 -28,-3 -27,-34 -50,-93 -64,-159 30,5 62,7 92,8l0 154zm-675 -168c-87,0 -158,-70 -158,-157 0,-87 71,-158 158,-158 74,0 136,52 153,121l186 0c-2,12 -2,25 -2,37 0,12 0,25 2,37l-186 0c-17,69 -79,120 -153,120zm172 -526c-87,0 -157,-70 -157,-157 0,-87 70,-158 157,-158 87,0 158,71 158,158 0,26 -7,51 -18,73l167 167c-20,15 -38,32 -54,50l-162 -162c-25,18 -57,29 -91,29zm-3 1049c-86,0 -157,-70 -157,-157 0,-87 71,-158 157,-158 36,0 69,12 95,32l161 -161c16,18 34,35 54,50l-168 168c10,20 16,44 16,69 0,87 -71,157 -158,157zm1056 -5c-87,0 -157,-71 -157,-157 0,-23 4,-44 13,-63l-169 -169c19,-15 37,-32 53,-50l160 160c28,-23 62,-36 100,-36 87,0 158,71 158,158 0,86 -71,157 -158,157zm166 -518c-74,0 -136,-51 -153,-120l-186 0c1,-12 2,-25 2,-37 0,-12 -1,-25 -2,-37l186 0c17,-69 79,-121 153,-121 87,0 158,71 158,158 0,87 -71,157 -158,157zm-189 -542c-25,0 -49,-6 -71,-17l-166 166c-16,-18 -34,-35 -53,-50l163 -163c-19,-26 -30,-58 -30,-93 0,-87 71,-158 157,-158 87,0 158,71 158,158 0,87 -71,157 -158,157zm-487 556c32,-1 63,-4 93,-9 -15,66 -37,126 -64,160 -10,1 -19,2 -29,3l0 -154zm-120 138c-99,-32 -177,-110 -209,-209 42,24 96,43 154,55 13,58 32,113 55,154zm256 -155c61,-14 117,-35 156,-62 -30,102 -110,184 -211,217 23,-42 42,-96 55,-155zm-477 -106c-2,-9 -3,-18 -3,-28l153 0c1,31 4,62 9,93 -66,-15 -125,-38 -159,-65zm190 -28l111 0 0 111c-33,-1 -67,-4 -101,-10 -5,-34 -9,-68 -10,-101zm151 0l112 0c-1,33 -5,67 -11,100 -33,6 -67,10 -101,11l0 -111zm152 0l153 0c0,4 -1,7 -1,11 -25,34 -87,62 -161,81 5,-31 8,-62 9,-92zm-496 -40c0,-10 1,-19 3,-28 34,-27 93,-50 159,-65 -5,31 -8,62 -9,93l-153 0zm203 -101c34,-6 68,-9 101,-11l0 112 -111 0c1,-33 5,-67 10,-101zm141 -10c34,1 68,4 101,10 6,34 10,68 11,101l-112 0 0 -111zm143 19c74,18 136,47 161,81 0,3 1,7 1,11l-153 0c-1,-30 -4,-61 -9,-92zm-472 11c32,-98 110,-176 209,-208 -23,41 -42,96 -55,154 -58,12 -112,31 -154,54zm261 -221c9,-1 19,-2 28,-3l0 153c-30,1 -62,4 -92,9 14,-66 37,-125 64,-159zm68 -3c10,1 19,2 29,3 27,34 49,93 64,159 -30,-5 -61,-8 -93,-9l0 -153zm81 16c101,33 181,114 211,217 -39,-27 -95,-48 -156,-62 -13,-59 -32,-113 -55,-155z"/></svg>