<svg xmlns="http://www.w3.org/2000/svg" xmlns:xlink="http://www.w3.org/1999/xlink" viewBox="0 0 512 512"><defs><linearGradient id="a" x2="488.94" y1="256" y2="256" data-name="New Gradient Swatch 1" gradientUnits="userSpaceOnUse"><stop class="stopColor003f8a svgShape" offset="0" stop-color="#009c97"/><stop class="stopColor00d7df svgShape" offset=".518" stop-color="#00cfc8"/><stop class="stopColor006df0 svgShape" offset="1" stop-color="#03fff6"/></linearGradient><linearGradient id="b" x1="0" x2="488.94" y1="253.05" y2="253.05" xlink:href="#a"/><linearGradient id="c" x1="0" x2="488.94" y1="216.402" y2="216.402" xlink:href="#a"/><linearGradient id="d" x1="0" x2="488.94" y1="257.455" y2="257.455" xlink:href="#a"/></defs><path fill="url(#a)" d="M457.87,96.96,259.25,8.69a8,8,0,0,0-6.5,0L54.13,96.96a8.012,8.012,0,0,0-4.73,7.91L71.47,400.91a7.968,7.968,0,0,0,4.17,6.43l176.55,95.69a7.968,7.968,0,0,0,7.62,0l176.55-95.69a7.968,7.968,0,0,0,4.17-6.43L462.6,104.87A8.012,8.012,0,0,0,457.87,96.96ZM424.9,395.36,256,486.9,87.1,395.36,65.78,109.3,256,24.75,446.22,109.3Z"/><path fill="url(#b)" d="M423.99,116.93,259.25,43.71a8,8,0,0,0-6.5,0L88.01,116.93a7.99,7.99,0,0,0-4.73,7.89l18.86,259.6a8.012,8.012,0,0,0,4.47,6.61l145.88,71.24a8.01,8.01,0,0,0,7.02,0l145.88-71.24a8.012,8.012,0,0,0,4.47-6.61l18.86-259.6A7.99,7.99,0,0,0,423.99,116.93ZM394.23,378.67,256,446.18,117.77,378.67,99.64,129.26,256,59.77l156.36,69.49Z"/><path fill="url(#c)" d="M295.6,240.391a23.927,23.927,0,0,0,16.97-7.018h0a24.029,24.029,0,1,0-16.971,7.018Zm-5.657-29.646a8,8,0,1,1,0,11.314A7.974,7.974,0,0,1,289.941,210.745Z"/><path fill="url(#d)" d="M329.54,182.46a56.012,56.012,0,0,0-92.36,58.42l-66.03,66.03a8,8,0,0,0,0,11.32l22.62,22.62a7.991,7.991,0,0,0,11.32,0l5.66-5.65,11.31,11.31a8,8,0,0,0,11.31,0l16.97-16.97a7.991,7.991,0,0,0,0-11.32l-11.31-11.31,32.09-32.09a56.012,56.012,0,0,0,58.42-92.36Zm-11.32,67.88a40.085,40.085,0,0,1-45.53,7.83,7.974,7.974,0,0,0-9.1,1.56l-41.53,41.52a8.015,8.015,0,0,0,0,11.32l11.31,11.31-5.65,5.66L216.4,318.22a7.991,7.991,0,0,0-11.31.01l-5.66,5.65-11.31-11.31,64.15-64.16a7.971,7.971,0,0,0,1.56-9.1,40.013,40.013,0,1,1,64.39,11.03Z"/></svg>