<svg xmlns="http://www.w3.org/2000/svg" data-name="flat gradient" viewBox="0 0 64 64"><defs><linearGradient id="a" x1="5.332" x2="58.668" y1="32" y2="32" gradientUnits="userSpaceOnUse"><stop class="stopColorffa68d svgShape" offset="0" stop-color="#009c97"/><stop class="stopColorfd3a84 svgShape" offset="1" stop-color="#03fff6"/></linearGradient></defs><path fill="url(#a)" d="M40.02,7.04117a12.03216,12.03216,0,1,0-13.62,19.62v28.07a.99154.99154,0,0,0,.31.72l4.25,4.13a1.49746,1.49746,0,0,0,2.08,0l4.35-4.18a1.517,1.517,0,0,0,.27-1.82l-1.48-2.63,1.12-1.13a1.51039,1.51039,0,0,0,.3-1.71l-1.33-2.8,1.69-1.71a.98305.98305,0,0,0,.15-1.22l-2.04-3.42,1.9-2.59a1.53354,1.53354,0,0,0,.28-.88v-9.19A12.09894,12.09894,0,0,0,40.02,7.04117Zm-8.04,11.68a4.46,4.46,0,1,1,4.46-4.46A4.46407,4.46407,0,0,1,31.98,18.72116Zm22.4007,25.90277A1.0003,1.0003,0,1,1,52.966,43.20938,12.76813,12.76813,0,0,0,52.95734,25.213,1.00043,1.00043,0,0,1,54.366,23.79257,14.77768,14.77768,0,0,1,54.38068,44.62393Zm-3.7699-2.81152a.993.993,0,0,1-.75213.34479,1.00858,1.00858,0,0,1-.70935-1.71149A8.86343,8.86343,0,0,0,49.15137,27.964a1.0004,1.0004,0,0,1,1.41449-1.41455A10.87176,10.87176,0,0,1,50.61078,41.81241Zm-1.821-7.609c.20349,1.36591-1.6001,6.387-3.43762,4.905a1,1,0,0,1-.00782-1.41455,4.93715,4.93715,0,0,0,1.44483-3.49048,4.847,4.847,0,0,0-1.44873-3.46991,1,1,0,0,1-.00781-1.41455C47.1637,27.81754,48.99854,32.81589,48.7898,34.2034Zm-6.25409,1.00519a1.00044,1.00044,0,0,1-.00006-2.00067A1.00044,1.00044,0,0,1,42.53571,35.20859Zm-31.5014,7.9685a1.00036,1.00036,0,0,1-1.41437,1.41455,14.77691,14.77691,0,0,1,.014-20.83123,1.00043,1.00043,0,0,1,1.4087,1.42035,12.70779,12.70779,0,0,0-.0083,17.99633ZM14.8487,27.93167A8.864,8.864,0,0,0,14.851,40.41348a1.011,1.011,0,0,1-.70966,1.71155,1.00079,1.00079,0,0,1-.78924-.382,10.87367,10.87367,0,0,1,.082-15.22589,1.00026,1.00026,0,0,1,1.41461,1.41455Zm3.81085,2.76953a4.932,4.932,0,0,0-.004,6.96033,1.00688,1.00688,0,0,1-.71112,1.70373.99536.99536,0,0,1-.71118-.29693,6.922,6.922,0,0,1-2.02307-4.8963c-.20893-1.38373,1.62536-6.3891,3.45617-4.88538A1.00007,1.00007,0,0,1,18.65955,30.7012Zm2.80475,4.47553a1.00044,1.00044,0,0,1,0-2.00067A1.00044,1.00044,0,0,1,21.4643,35.17673Z"/></svg>