<svg xmlns="http://www.w3.org/2000/svg" fill-rule="evenodd" stroke-linejoin="round" stroke-miterlimit="2" clip-rule="evenodd" viewBox="0 0 32 32"><path fill="url(#_Linear1)" d="M18.334,1.864c-0.089,-0.429 -0.447,-0.751 -0.883,-0.794c-0.965,-0.093 -1.937,-0.093 -2.902,0c-0.436,0.043 -0.794,0.365 -0.883,0.794l-0.31,1.51c-0.466,0.097 -0.927,0.221 -1.38,0.37c0,-0 -1.023,-1.153 -1.023,-1.153c-0.291,-0.328 -0.762,-0.427 -1.161,-0.246c-0.883,0.401 -1.724,0.887 -2.513,1.451c-0.357,0.255 -0.506,0.713 -0.368,1.129l0.486,1.462c-0.355,0.318 -0.692,0.655 -1.01,1.011c0,-0.001 -1.462,-0.487 -1.462,-0.487c-0.416,-0.138 -0.874,0.011 -1.129,0.368c-0.564,0.789 -1.05,1.63 -1.451,2.513c-0.181,0.399 -0.082,0.87 0.246,1.161l1.153,1.023c-0.149,0.453 -0.273,0.914 -0.37,1.381c-0,-0.001 -1.51,0.309 -1.51,0.309c-0.429,0.089 -0.751,0.447 -0.794,0.883c-0.093,0.965 -0.093,1.937 0,2.902c0.043,0.436 0.365,0.794 0.794,0.883l1.51,0.31c0.097,0.466 0.221,0.927 0.37,1.38c-0,-0 -1.153,1.023 -1.153,1.023c-0.328,0.291 -0.427,0.762 -0.246,1.161c0.401,0.883 0.887,1.724 1.451,2.513c0.255,0.357 0.713,0.506 1.129,0.368l1.462,-0.486c0.318,0.355 0.655,0.692 1.011,1.01c-0.001,-0 -0.487,1.462 -0.487,1.462c-0.138,0.416 0.011,0.874 0.368,1.129c0.789,0.564 1.63,1.05 2.513,1.451c0.399,0.181 0.87,0.082 1.161,-0.246l1.023,-1.153c0.453,0.149 0.914,0.273 1.381,0.37c-0.001,0 0.309,1.51 0.309,1.51c0.089,0.429 0.447,0.751 0.883,0.794c0.965,0.093 1.937,0.093 2.902,-0c0.436,-0.043 0.794,-0.365 0.883,-0.794l0.31,-1.51c0.466,-0.097 0.927,-0.221 1.38,-0.37c-0,0 1.023,1.153 1.023,1.153c0.291,0.328 0.762,0.427 1.161,0.246c0.883,-0.401 1.724,-0.887 2.513,-1.451c0.357,-0.255 0.506,-0.713 0.368,-1.129l-0.486,-1.462c0.355,-0.318 0.692,-0.655 1.01,-1.011c-0,0.001 1.462,0.487 1.462,0.487c0.416,0.138 0.874,-0.011 1.129,-0.368c0.564,-0.789 1.05,-1.63 1.451,-2.513c0.181,-0.399 0.082,-0.87 -0.246,-1.161l-1.153,-1.023c0.149,-0.453 0.273,-0.914 0.37,-1.381c0,0.001 1.51,-0.309 1.51,-0.309c0.429,-0.089 0.751,-0.447 0.794,-0.883c0.093,-0.965 0.093,-1.937 -0,-2.902c-0.043,-0.436 -0.365,-0.794 -0.794,-0.883l-1.51,-0.31c-0.097,-0.466 -0.221,-0.927 -0.37,-1.38c0,0 1.153,-1.023 1.153,-1.023c0.328,-0.291 0.427,-0.762 0.246,-1.161c-0.401,-0.883 -0.887,-1.724 -1.451,-2.513c-0.255,-0.357 -0.713,-0.506 -1.129,-0.368l-1.462,0.486c-0.318,-0.355 -0.655,-0.692 -1.011,-1.01c0.001,0 0.487,-1.462 0.487,-1.462c0.138,-0.416 -0.011,-0.874 -0.368,-1.129c-0.789,-0.564 -1.63,-1.05 -2.513,-1.451c-0.399,-0.181 -0.87,-0.082 -1.161,0.246l-1.023,1.153c-0.453,-0.149 -0.914,-0.273 -1.381,-0.37c0.001,-0 -0.309,-1.51 -0.309,-1.51Zm-1.807,1.147l0.293,1.427c0.085,0.41 0.415,0.724 0.829,0.787c0.79,0.121 1.565,0.329 2.31,0.62c0.39,0.152 0.834,0.045 1.111,-0.268l0.968,-1.09c0.312,0.164 0.616,0.34 0.913,0.527c0,0.001 -0.46,1.383 -0.46,1.383c-0.132,0.397 -0.002,0.835 0.324,1.096c0.624,0.5 1.192,1.068 1.692,1.692c0.261,0.326 0.699,0.456 1.096,0.324l1.382,-0.46c0.189,0.297 0.364,0.602 0.528,0.913c-0,-0 -1.09,0.968 -1.09,0.968c-0.313,0.277 -0.42,0.721 -0.268,1.111c0.291,0.745 0.499,1.52 0.62,2.31c0.063,0.414 0.377,0.744 0.787,0.829l1.427,0.293c0.015,0.351 0.015,0.703 0,1.054c0,0 -1.427,0.293 -1.427,0.293c-0.41,0.085 -0.724,0.415 -0.787,0.829c-0.121,0.79 -0.329,1.565 -0.62,2.31c-0.152,0.39 -0.045,0.834 0.268,1.111l1.09,0.968c-0.164,0.312 -0.34,0.616 -0.527,0.913c-0.001,0 -1.383,-0.46 -1.383,-0.46c-0.397,-0.132 -0.835,-0.002 -1.096,0.324c-0.5,0.624 -1.068,1.192 -1.692,1.692c-0.326,0.261 -0.456,0.699 -0.324,1.096l0.46,1.382c-0.297,0.189 -0.602,0.364 -0.913,0.528c0,-0 -0.968,-1.09 -0.968,-1.09c-0.277,-0.313 -0.721,-0.42 -1.111,-0.268c-0.745,0.291 -1.52,0.499 -2.31,0.62c-0.414,0.063 -0.744,0.377 -0.829,0.787l-0.293,1.427c-0.351,0.015 -0.703,0.015 -1.054,0c-0,0 -0.293,-1.427 -0.293,-1.427c-0.085,-0.41 -0.415,-0.724 -0.829,-0.787c-0.79,-0.121 -1.565,-0.329 -2.31,-0.62c-0.39,-0.152 -0.834,-0.045 -1.111,0.268l-0.968,1.09c-0.312,-0.164 -0.616,-0.34 -0.913,-0.527c-0,-0.001 0.46,-1.383 0.46,-1.383c0.132,-0.397 0.002,-0.835 -0.324,-1.096c-0.624,-0.5 -1.192,-1.068 -1.692,-1.692c-0.261,-0.326 -0.699,-0.456 -1.096,-0.324l-1.382,0.46c-0.189,-0.297 -0.364,-0.602 -0.528,-0.913c0,0 1.09,-0.968 1.09,-0.968c0.313,-0.277 0.42,-0.721 0.268,-1.111c-0.291,-0.745 -0.499,-1.52 -0.62,-2.31c-0.063,-0.414 -0.377,-0.744 -0.787,-0.829l-1.427,-0.293c-0.015,-0.351 -0.015,-0.703 -0,-1.054c-0,-0 1.427,-0.293 1.427,-0.293c0.41,-0.085 0.724,-0.415 0.787,-0.829c0.121,-0.79 0.329,-1.565 0.62,-2.31c0.152,-0.39 0.045,-0.834 -0.268,-1.111l-1.09,-0.968c0.164,-0.312 0.34,-0.616 0.527,-0.913c0.001,-0 1.383,0.46 1.383,0.46c0.397,0.132 0.835,0.002 1.096,-0.324c0.5,-0.624 1.068,-1.192 1.692,-1.692c0.326,-0.261 0.456,-0.699 0.324,-1.096l-0.46,-1.382c0.297,-0.189 0.602,-0.364 0.913,-0.528c-0,0 0.968,1.09 0.968,1.09c0.277,0.313 0.721,0.42 1.111,0.268c0.745,-0.291 1.52,-0.499 2.31,-0.62c0.414,-0.063 0.744,-0.377 0.829,-0.787l0.293,-1.427c0.351,-0.015 0.703,-0.015 1.054,-0l0,-0Zm-3.843,15.872c0.052,0.496 0.189,0.976 0.409,1.417c-0.3,0.125 -0.578,0.229 -0.825,0.354c-0.976,0.494 -1.697,1.14 -1.829,2.979c-0.039,0.55 0.376,1.029 0.926,1.069c0.551,0.039 1.03,-0.376 1.069,-0.926c0.031,-0.435 0.102,-0.739 0.247,-0.956c0.223,-0.332 0.588,-0.437 0.989,-0.605c0.26,-0.109 0.536,-0.224 0.823,-0.362c1.683,1.063 4.095,0.783 5.747,-0.869c1.218,-1.218 1.604,-2.28 1.851,-3.552c0.204,-1.052 0.292,-2.278 0.858,-3.975c0.119,-0.359 0.026,-0.755 -0.242,-1.023c-0.268,-0.268 -0.664,-0.362 -1.023,-0.242c-1.219,0.407 -2.195,0.566 -3.038,0.7c-0.378,-1.233 -0.99,-3.378 -1.137,-4.092c-0.076,-0.372 -0.355,-0.668 -0.721,-0.766c-0.365,-0.098 -0.755,0.019 -1.007,0.303c-0.972,1.096 -2.397,2.111 -3.446,3.217c-0.979,1.032 -1.643,2.153 -1.665,3.396c-0.02,1.143 0.488,2.455 2.014,3.933Zm3.733,1.591c0.811,0.106 1.724,-0.22 2.408,-0.904c1.061,-1.061 1.221,-1.971 1.414,-3.164c0.09,-0.551 0.181,-1.153 0.331,-1.835l-0,-0c-0.682,0.15 -1.284,0.241 -1.835,0.331c-1.193,0.192 -2.103,0.353 -3.164,1.414c-0.573,0.573 -0.895,1.306 -0.922,2.005c0.007,0.067 0.007,0.134 0,0.2c0.011,0.252 0.062,0.497 0.154,0.725c0.355,-0.332 0.712,-0.763 1.059,-1.339c0.284,-0.473 0.899,-0.626 1.372,-0.341c0.473,0.285 0.626,0.9 0.341,1.372c-0.382,0.634 -0.771,1.134 -1.158,1.536Zm0.266,-7.169c-0.21,-0.693 -0.47,-1.589 -0.692,-2.389c-0.749,0.664 -1.549,1.323 -2.205,2.014c-0.606,0.639 -1.102,1.287 -1.116,2.056c-0.008,0.433 0.139,0.88 0.46,1.366c0.245,-0.518 0.588,-1.011 1.027,-1.451c0.878,-0.877 1.674,-1.323 2.526,-1.596Z"/><defs><linearGradient id="_Linear1" x1="0" x2="1" y1="0" y2="0" gradientTransform="matrix(30 0 0 30 1 16)" gradientUnits="userSpaceOnUse"><stop class="stopColorfeba66 svgShape" offset="0" stop-color="#009c97"/><stop class="stopColorfc646e svgShape" offset="1" stop-color="#03fff6"/></linearGradient></defs></svg>