<svg xmlns="http://www.w3.org/2000/svg" viewBox="0 0 512 512"><defs><linearGradient id="a" x1="12" x2="500" y1="256" y2="256" gradientUnits="userSpaceOnUse"><stop class="stopColor62bb46 svgShape" offset="0" stop-color="#03fff6"/><stop class="stopColor329f86 svgShape" offset=".444" stop-color="#00cfc8"/><stop class="stopColor0e8bb6 svgShape" offset=".815" stop-color="#009c97"/><stop class="stopColor0083c8 svgShape" offset="1" stop-color="#00c8c2"/></linearGradient></defs><path fill="url(#a)" d="M492,220H441.33a17.94,17.94,0,0,0-16.612,11.082l-33.772,81.047-39.78-51.146A43.723,43.723,0,0,0,316.44,244H268v-4.527A16.014,16.014,0,0,0,280,224V211.189a17.236,17.236,0,0,0,12-16.4V180.162a4.167,4.167,0,0,0-1.518-3.3,4,4,0,0,0-5.31.309l-4.076,4.077-1.46-2.922a4.126,4.126,0,0,0-2.308-2.1,4.009,4.009,0,0,0-4.906,1.989l-1.974,3.947-4.359-2.906a19.484,19.484,0,0,0-5.12-2.417,19.25,19.25,0,0,0-6.564-.812c-10.4.5-18.4,9.418-18.4,19.826V220a12.02,12.02,0,0,0,8,11.314V244H195.56a43.725,43.725,0,0,0-34.727,16.984l-39.779,51.145L87.283,231.085A17.941,17.941,0,0,0,70.67,220H20a8,8,0,0,0-8,8v5.79a13.914,13.914,0,0,0,10.989,13.676l18.083,3.985,36.1,90.262A48.2,48.2,0,0,0,121.91,372a48.406,48.406,0,0,0,38.54-19.27L188,316V500h64V448.172a4.116,4.116,0,0,1,3.607-4.153A4,4,0,0,1,260,448v52h64V316l27.55,36.73A48.139,48.139,0,0,0,390.09,372a47.952,47.952,0,0,0,44.734-30.285l36.1-90.264,16.515-3.64A16,16,0,0,0,500,232.187V228A8,8,0,0,0,492,220Zm-244-4a3.993,3.993,0,0,1,3.275,1.713,4,4,0,0,0,6.011.643c.187-.173.374-.358.538-.523a20.865,20.865,0,0,0,5.406-9.216l4.944,2.056a17.176,17.176,0,0,0,3.826,1.08V224a8.009,8.009,0,0,1-8,8,12.083,12.083,0,0,1-2.422-.244,4,4,0,1,0-1.6,7.837l.027,0v6.746l-4,4-4-4V228a4,4,0,0,0-4-4,4,4,0,0,1,0-8ZM154.05,347.93a40.171,40.171,0,0,1-54.67,9.156A39.926,39.926,0,0,1,84.6,338.745l-36.89-92.23a4,4,0,0,0-2.854-2.421l-20.151-4.44A5.966,5.966,0,0,1,20,233.79V228H70.67a9.962,9.962,0,0,1,9.227,6.159l36.411,87.38a4,4,0,0,0,6.849.917l15.037-19.334,31.3,24.214ZM323.2,301.6a4.01,4.01,0,0,0-5.458-.907A4.116,4.116,0,0,0,316,304.137V396H196V304.129a4.105,4.105,0,0,0-1.754-3.444,4.007,4.007,0,0,0-5.446.915l-14.5,19.336L143.1,296.807,167.146,265.9A35.781,35.781,0,0,1,195.56,252h50.783l5.677,5.676L241,266.181l-5.544-8.554a4.118,4.118,0,0,0-5.286-1.525,4,4,0,0,0-1.521,5.731l8,12.343a4,4,0,0,0,5.8.991l3.916-3.021,3.47,6.94L243.7,367.443a2,2,0,0,0,.217,1.053l10.308,20.046a2,2,0,0,0,3.558,0L268.087,368.5a2,2,0,0,0,.217-1.053l-6.133-88.357,3.448-6.957,3.938,3.038a4,4,0,0,0,5.8-.991l7.878-12.155a4.151,4.151,0,0,0-.884-5.6,4,4,0,0,0-5.706,1.061l-5.639,8.7-11.025-8.5L265.657,252H316.44a35.777,35.777,0,0,1,28.413,13.9l23.689,30.457-31.183,24.124ZM492,232.187A8.05,8.05,0,0,1,485.722,240l-18.582,4.095a4,4,0,0,0-2.854,2.421L427.4,338.744A39.99,39.99,0,0,1,390.09,364a40.133,40.133,0,0,1-32.14-16.07l-15.791-21.053,31.294-24.209,15.39,19.788a4,4,0,0,0,6.849-.917L432.1,234.155A9.962,9.962,0,0,1,441.33,228H492ZM364,140a51.959,51.959,0,0,0,39.077-86.251l5.264-5.264H418a4,4,0,0,0,2.828-1.172L432.137,36a4,4,0,0,0-2.828-6.829H422V21.858a4,4,0,0,0-6.828-2.829L403.854,30.343a4,4,0,0,0-1.172,2.828v9.661l-5.321,5.32A51.987,51.987,0,1,0,364,140Zm0-96a43.787,43.787,0,0,1,27.682,9.832l-8.54,8.54a32.106,32.106,0,1,0,5.756,5.557l8.512-8.512A43.972,43.972,0,1,1,364,44Zm-3.078,46.249a4,4,0,0,0,5.656,0l4.555-4.556A7.5,7.5,0,1,1,364,80.5a7.593,7.593,0,0,1,.947.066l-4.025,4.025A4,4,0,0,0,360.922,90.249Zm7.75-7.75a4,4,0,0,1,0-5.658l11.67-11.67A4,4,0,0,1,386,70.829L374.328,82.5a4,4,0,0,1-5.656,0ZM396,160a52,52,0,1,0,52-52A52.059,52.059,0,0,0,396,160Zm52-44a44,44,0,1,1-44,44A44.049,44.049,0,0,1,448,116ZM64,212a52,52,0,1,0-52-52A52.059,52.059,0,0,0,64,212Zm0-96a44,44,0,1,1-44,44A44.049,44.049,0,0,1,64,116Zm0,80a36,36,0,1,0-36-36A36.04,36.04,0,0,0,64,196Zm-4-52a4,4,0,0,1,8,0v12h8a4,4,0,0,1,0,8H64a4,4,0,0,1-4-4Zm196-28a52,52,0,1,0-52-52A52.059,52.059,0,0,0,256,116Zm0-96a44,44,0,1,1-44,44A44.049,44.049,0,0,1,256,20ZM236,96h40a4,4,0,0,0,4-4V36a4,4,0,0,0-4-4H236a4,4,0,0,0-4,4V92A4,4,0,0,0,236,96Zm12-48h16a4,4,0,0,1,0,8H248a4,4,0,0,1,0-8Zm0,12h16a4,4,0,0,1,0,8H248a4,4,0,0,1,0-8Zm0,12h16a4,4,0,0,1,0,8H248a4,4,0,0,1,0-8ZM109.265,122.646a51.906,51.906,0,0,0,77.47,0,4.064,4.064,0,0,0,.586-.676,52,52,0,1,0-78.642,0A4.064,4.064,0,0,0,109.265,122.646Zm22.735.229a4,4,0,0,1-8,0v-17.75a4,4,0,0,1,8,0ZM172,124a4,4,0,0,1-8,0V105.125a4,4,0,0,1,8,0Zm-64-17.7a44,44,0,1,1,80,0V97a13.015,13.015,0,0,0-13-13H156.919A11.936,11.936,0,0,0,160,76V68a12,12,0,0,0-24,0v8a11.936,11.936,0,0,0,3.081,8H122a14.015,14.015,0,0,0-14,14Zm370.5,58.749v-11.09h-6.172a24.8,24.8,0,0,0-3.2-7.736l4.365-4.365-7.842-7.842-4.365,4.365a24.8,24.8,0,0,0-7.736-3.205V129h-11.09v6.172a24.8,24.8,0,0,0-7.736,3.205l-4.365-4.365-7.842,7.842,4.365,4.365a24.8,24.8,0,0,0-3.2,7.736H417.5v11.09h6.172a24.8,24.8,0,0,0,3.2,7.736l-4.365,4.365,7.842,7.842,4.365-4.365a24.8,24.8,0,0,0,7.736,3.205V190h11.09v-6.172a24.8,24.8,0,0,0,7.736-3.205l4.365,4.365,7.842-7.842-4.365-4.365a24.8,24.8,0,0,0,3.2-7.736ZM448,176a16,16,0,1,1,16-16A16,16,0,0,1,448,176Z" data-name="solid gradient"/></svg>